<svg width="66" height="49" viewBox="0 0 66 49" fill="none" xmlns="http://www.w3.org/2000/svg">
<mask id="mask0_28094_2725" style="mask-type:luminance" maskUnits="userSpaceOnUse" x="0" y="0" width="49" height="49">
<path d="M0 0H48.0799V48.0799H0V0Z" fill="white"/>
</mask>
<g mask="url(#mask0_28094_2725)">
<path fill-rule="evenodd" clip-rule="evenodd" d="M0 40.2525C0 44.5554 3.48794 48.0433 7.7909 48.0433H31.9817C29.8944 48.0371 27.8289 47.6234 25.9002 46.8247C23.9575 46.0198 22.1922 44.84 20.7052 43.3531C19.2175 41.8662 18.0385 40.1 17.2336 38.1574C16.4287 36.2147 16.0142 34.132 16.0142 32.0292H32.0284V16.015C34.1313 16.015 36.2139 16.4287 38.1566 17.2336C40.1 18.0385 41.8654 19.2183 43.3523 20.7052C44.8393 22.1922 46.019 23.9575 46.8239 25.901C47.6288 27.8436 48.0426 29.9263 48.0426 32.0292H32.0284V48.0433H40.2525C44.5546 48.0433 48.0426 44.5554 48.0426 40.2525V7.7909C48.0426 3.48872 44.5546 0 40.2525 0H7.7909C3.48794 0 0 3.48872 0 7.7909V40.2525ZM0 16.015C0 18.1178 0.414509 20.1997 1.21942 22.1432C2.02355 24.0858 3.2033 25.8512 4.69025 27.3389C6.17797 28.8259 7.94332 30.0048 9.88599 30.8097C11.8287 31.6147 13.9113 32.0292 16.0142 32.0292V16.015H32.0284C32.0284 13.9121 31.6147 11.8294 30.8097 9.88677C30.0048 7.94332 28.8251 6.17797 27.3381 4.69103C25.8512 3.20408 24.0858 2.02433 22.1424 1.21942C20.1997 0.414509 18.1171 0.00077769 16.0142 0.00077769V16.015H0Z" fill="black"/>
</g>
<mask id="mask1_28094_2725" style="mask-type:luminance" maskUnits="userSpaceOnUse" x="48" y="1" width="18" height="46">
<path d="M48 1H65.7276V46.5913H48V1Z" fill="white"/>
</mask>
<g mask="url(#mask1_28094_2725)">
<path d="M35.1784 7.1827C35.1784 7.07149 35.1729 6.96105 35.1621 6.85062C35.1512 6.74019 35.1356 6.63054 35.1138 6.52166C35.0921 6.41278 35.0648 6.30546 35.033 6.19969C35.0003 6.09315 34.963 5.98894 34.921 5.88629C34.8782 5.78363 34.8308 5.68409 34.7787 5.5861C34.7258 5.48811 34.669 5.39323 34.6076 5.30069C34.5453 5.20814 34.4792 5.11948 34.4092 5.03394C34.3385 4.94761 34.2638 4.86596 34.1853 4.78741C34.1067 4.70886 34.0251 4.6342 33.9387 4.56421C33.8532 4.49344 33.7638 4.42812 33.6712 4.3659C33.5795 4.30446 33.4838 4.24769 33.3858 4.19559C33.2878 4.1427 33.1875 4.09527 33.0848 4.05327C32.983 4.0105 32.878 3.97317 32.7722 3.94128C32.6657 3.90862 32.5576 3.88218 32.4487 3.8604C32.3398 3.83863 32.2302 3.8223 32.1197 3.81141C32.0093 3.80052 31.8981 3.79508 31.7877 3.79508H27.4925C27.4536 3.65198 27.4061 3.51122 27.3509 3.37279C27.2949 3.23514 27.2312 3.1006 27.1596 2.97073C27.0873 2.84007 27.008 2.71487 26.9216 2.59432C26.8345 2.473 26.7404 2.35791 26.6401 2.24825C26.539 2.13937 26.4317 2.03594 26.3189 1.93951C26.2054 1.8423 26.0872 1.75286 25.9635 1.67043C25.8391 1.58799 25.7108 1.51333 25.5778 1.44645C25.4448 1.37879 25.3087 1.32047 25.1687 1.26914C25.0288 1.21859 24.8864 1.17659 24.741 1.14315C24.5964 1.10894 24.4494 1.08405 24.3016 1.0685C24.1531 1.05216 24.0053 1.04516 23.856 1.04672C23.7075 1.04828 23.5589 1.05916 23.4112 1.07861C23.2634 1.09805 23.118 1.12682 22.9733 1.16337C22.8294 1.2007 22.6879 1.24659 22.5487 1.30025C22.4103 1.35391 22.275 1.41612 22.1443 1.48689C22.0129 1.55689 21.8861 1.63465 21.764 1.7202C21.6419 1.80497 21.526 1.89751 21.4148 1.99706C21.3044 2.0966 21.1994 2.20159 21.1014 2.31358C21.0034 2.42556 20.9124 2.543 20.8284 2.66587C20.7445 2.78875 20.6675 2.91629 20.599 3.04772C20.5306 3.17992 20.4699 3.31524 20.4171 3.45445C20.3649 3.59366 20.3214 3.73597 20.2856 3.88062C20.2506 4.0245 20.2234 4.1707 20.2055 4.31846C20.1884 4.46622 20.1791 4.61398 20.1791 4.7633C20.1791 4.91184 20.1884 5.06038 20.2055 5.20736C20.2234 5.35512 20.2506 5.50133 20.2856 5.64598C20.3214 5.79063 20.3649 5.93217 20.4171 6.07138C20.4699 6.21058 20.5306 6.34668 20.599 6.47811C20.6675 6.61032 20.7445 6.73786 20.8284 6.86073C20.9124 6.98283 21.0034 7.10026 21.1014 7.21225C21.1994 7.32423 21.3044 7.43 21.4148 7.52955C21.526 7.62831 21.6419 7.72086 21.764 7.8064C21.8861 7.89195 22.0129 7.96972 22.1443 8.03971C22.275 8.1097 22.4103 8.17192 22.5487 8.22558C22.6879 8.28002 22.8294 8.32512 22.9733 8.36245C23.118 8.39978 23.2634 8.42778 23.4112 8.44722C23.5589 8.46666 23.7075 8.47755 23.856 8.4791C24.0053 8.48144 24.1531 8.47366 24.3016 8.45811C24.4494 8.44178 24.5964 8.41689 24.741 8.38345C24.8864 8.35001 25.0288 8.30724 25.1687 8.25669C25.3087 8.20614 25.4448 8.14703 25.5778 8.08015C25.7108 8.01327 25.8391 7.93861 25.9635 7.85618C26.0872 7.77296 26.2054 7.68353 26.3189 7.58709C26.4317 7.49066 26.539 7.38723 26.6401 7.27757C26.7404 7.16792 26.8345 7.05282 26.9216 6.93228C27.008 6.81174 27.0873 6.68575 27.1596 6.55588C27.2312 6.42522 27.2949 6.29146 27.3509 6.15303C27.4061 6.01538 27.4536 5.87462 27.4925 5.73075H31.7877C31.8825 5.73075 31.9774 5.74008 32.0707 5.75874C32.1648 5.77741 32.255 5.80463 32.3437 5.84118C32.4316 5.87773 32.5156 5.92284 32.5949 5.97572C32.6742 6.0286 32.7473 6.08849 32.815 6.15614C32.8826 6.2238 32.9425 6.29691 32.9962 6.37623C33.0491 6.45555 33.0934 6.53877 33.1299 6.62742C33.1665 6.7153 33.1945 6.80629 33.2132 6.89962C33.2318 6.99294 33.2412 7.08704 33.2412 7.1827V22.8252H27.4925C27.4536 22.6821 27.4061 22.5413 27.3509 22.4029C27.2949 22.2652 27.2312 22.1315 27.1596 22.0008C27.0881 21.8709 27.0088 21.7457 26.9216 21.6252C26.8345 21.5039 26.7412 21.3888 26.6401 21.2799C26.5398 21.1702 26.4325 21.0676 26.3197 20.9704C26.2062 20.8739 26.088 20.7845 25.9643 20.7021C25.8399 20.6196 25.7116 20.545 25.5794 20.4781C25.4464 20.4112 25.3095 20.3521 25.1703 20.3015C25.0303 20.251 24.888 20.209 24.7426 20.1748C24.5979 20.1413 24.4509 20.1165 24.3032 20.1009C24.1554 20.0846 24.0069 20.0776 23.8583 20.0791C23.7098 20.0807 23.5613 20.0916 23.4135 20.111C23.2665 20.1305 23.1203 20.1592 22.9764 20.1958C22.8326 20.2331 22.691 20.2782 22.5518 20.3327C22.4134 20.3863 22.2788 20.4485 22.1474 20.5185C22.016 20.5885 21.89 20.6663 21.7679 20.7518C21.6458 20.8374 21.5299 20.9299 21.4187 21.0287C21.3083 21.1282 21.2041 21.234 21.1061 21.3452C21.0073 21.4572 20.9163 21.5746 20.8323 21.6975C20.7483 21.8196 20.6721 21.9471 20.6037 22.0793C20.5353 22.2108 20.4746 22.3461 20.4217 22.4853C20.3696 22.6245 20.3261 22.766 20.2903 22.9107C20.2553 23.0553 20.2288 23.2008 20.211 23.3485C20.1931 23.4963 20.1837 23.6441 20.1837 23.7934C20.1837 23.9419 20.1931 24.0897 20.211 24.2374C20.2288 24.3852 20.2553 24.5306 20.2903 24.6753C20.3261 24.8199 20.3696 24.9615 20.4217 25.1007C20.4746 25.2399 20.5353 25.3752 20.6037 25.5066C20.6721 25.6388 20.7483 25.7664 20.8323 25.8885C20.9163 26.0113 21.0073 26.1288 21.1061 26.2408C21.2041 26.3528 21.3083 26.4577 21.4187 26.5573C21.5299 26.6568 21.6458 26.7486 21.7679 26.8341C21.89 26.9197 22.016 26.9975 22.1474 27.0675C22.2788 27.1374 22.4134 27.1997 22.5518 27.2533C22.691 27.3078 22.8326 27.3529 22.9764 27.3902C23.1203 27.4267 23.2665 27.4555 23.4135 27.475C23.5613 27.4944 23.7098 27.5053 23.8583 27.5068C24.0069 27.5084 24.1554 27.5014 24.3032 27.4851C24.4509 27.4695 24.5979 27.4446 24.7426 27.4112C24.888 27.3778 25.0303 27.335 25.1703 27.2844C25.3103 27.2339 25.4464 27.1748 25.5794 27.1079C25.7116 27.041 25.8399 26.9664 25.9643 26.8839C26.088 26.8015 26.2062 26.712 26.3197 26.6156C26.4325 26.5192 26.5398 26.4157 26.6401 26.3061C26.7412 26.1972 26.8345 26.0821 26.9216 25.9616C27.0088 25.8403 27.0881 25.715 27.1596 25.5852C27.2312 25.4545 27.2949 25.3208 27.3509 25.1831C27.4061 25.0447 27.4536 24.9047 27.4925 24.7608H33.2412V40.4033C33.2412 40.4989 33.2318 40.593 33.2132 40.6864C33.1945 40.7805 33.1665 40.8707 33.1299 40.9586C33.0934 41.0472 33.0491 41.1304 32.9962 41.2097C32.9425 41.2891 32.8826 41.3622 32.815 41.4298C32.7473 41.4975 32.6742 41.5574 32.5949 41.6103C32.5156 41.6631 32.4316 41.7082 32.3437 41.7448C32.255 41.7814 32.1648 41.8086 32.0707 41.8272C31.9774 41.8459 31.8825 41.8552 31.7877 41.8552H27.4925C27.4536 41.7114 27.4061 41.5706 27.3509 41.4329C27.2949 41.2953 27.2312 41.1615 27.1596 41.0309C27.0881 40.901 27.0088 40.7758 26.9216 40.6545C26.8345 40.5339 26.7412 40.4188 26.6401 40.31C26.5398 40.2003 26.4325 40.0969 26.3197 40.0004C26.2062 39.904 26.088 39.8146 25.9643 39.7321C25.8399 39.6497 25.7116 39.575 25.5794 39.5082C25.4464 39.4405 25.3103 39.3822 25.1703 39.3316C25.0303 39.2803 24.888 39.2383 24.7426 39.2049C24.5979 39.1714 24.4509 39.1465 24.3032 39.1302C24.1554 39.1147 24.0069 39.1077 23.8583 39.1092C23.7098 39.1108 23.5613 39.1217 23.4135 39.1411C23.2665 39.1605 23.1203 39.1893 22.9764 39.2259C22.8326 39.2632 22.691 39.3083 22.5518 39.3627C22.4134 39.4164 22.2788 39.4786 22.1474 39.5486C22.016 39.6186 21.89 39.6964 21.7679 39.7819C21.6458 39.8675 21.5299 39.9592 21.4187 40.0588C21.3083 40.1583 21.2041 40.2633 21.1061 40.3753C21.0073 40.4873 20.9163 40.6047 20.8323 40.7268C20.7483 40.8497 20.6721 40.9772 20.6037 41.1086C20.5353 41.2409 20.4746 41.3762 20.4217 41.5154C20.3696 41.6546 20.3261 41.7961 20.2903 41.9408C20.2553 42.0854 20.2288 42.2309 20.211 42.3786C20.1931 42.5264 20.1837 42.6741 20.1837 42.8227C20.1837 42.9712 20.1931 43.1198 20.211 43.2675C20.2288 43.4145 20.2553 43.5607 20.2903 43.7054C20.3261 43.8492 20.3696 43.9915 20.4217 44.1308C20.4746 44.2692 20.5353 44.4053 20.6037 44.5367C20.6721 44.6689 20.7483 44.7957 20.8323 44.9186C20.9163 45.0414 21.0073 45.1589 21.1061 45.2708C21.2041 45.3821 21.3083 45.4878 21.4187 45.5874C21.5299 45.6861 21.6458 45.7787 21.7679 45.8642C21.89 45.949 22.016 46.0268 22.1474 46.0975C22.2788 46.1675 22.4134 46.2297 22.5518 46.2834C22.691 46.3371 22.8326 46.3829 22.9764 46.4203C23.1203 46.4568 23.2665 46.4856 23.4135 46.505C23.5613 46.5245 23.7098 46.5346 23.8583 46.5369C24.0069 46.5385 24.1554 46.5315 24.3032 46.5152C24.4509 46.4996 24.5979 46.4747 24.7426 46.4413C24.888 46.4071 25.0303 46.3651 25.1703 46.3145C25.3103 46.264 25.4464 46.2049 25.5794 46.138C25.7116 46.0711 25.8399 45.9964 25.9643 45.914C26.088 45.8316 26.2062 45.7421 26.3197 45.6457C26.4325 45.5485 26.5398 45.4458 26.6401 45.3362C26.7412 45.2265 26.8345 45.1114 26.9216 44.9909C27.0088 44.8703 27.0881 44.7451 27.1596 44.6145C27.2312 44.4846 27.2949 44.3508 27.3509 44.2124C27.4061 44.0748 27.4536 43.934 27.4925 43.7909H31.7877C31.8981 43.7909 32.0093 43.7855 32.1197 43.7746C32.2302 43.7637 32.3398 43.7474 32.4487 43.7256C32.5576 43.7038 32.6657 43.6774 32.7722 43.6447C32.878 43.6128 32.983 43.5755 33.0848 43.5327C33.1875 43.4907 33.2878 43.4433 33.3858 43.3912C33.4838 43.3383 33.5795 43.2815 33.6712 43.2201C33.7638 43.1586 33.8532 43.0925 33.9387 43.0218C34.0251 42.9518 34.1067 42.8771 34.1853 42.7986C34.2638 42.72 34.3385 42.6384 34.4092 42.552C34.4792 42.4665 34.5453 42.3778 34.6076 42.2853C34.669 42.1927 34.7258 42.0979 34.7787 41.9999C34.8308 41.9027 34.8782 41.8023 34.921 41.6997C34.963 41.597 35.0003 41.4928 35.033 41.3871C35.0648 41.2805 35.0921 41.1732 35.1138 41.0643C35.1356 40.9554 35.1512 40.8458 35.1621 40.7354C35.1729 40.6249 35.1784 40.5145 35.1784 40.4033V24.7608H38.4976C38.5528 25.0136 38.6282 25.2593 38.7254 25.4989C38.8219 25.7384 38.9385 25.9678 39.0738 26.1879C39.2099 26.4072 39.3631 26.6141 39.5342 26.8077C39.7053 27.0014 39.892 27.1794 40.0934 27.342C40.2948 27.5037 40.5079 27.6476 40.7342 27.7736C40.9597 27.8996 41.1946 28.0053 41.4388 28.0909C41.6822 28.1772 41.9318 28.2418 42.1869 28.2853C42.442 28.3289 42.6986 28.3506 42.9568 28.3506C43.2158 28.3506 43.4724 28.3289 43.7275 28.2853C43.9826 28.2418 44.2315 28.1772 44.4757 28.0909C44.7199 28.0053 44.9547 27.8996 45.1803 27.7736C45.4058 27.6476 45.6196 27.5037 45.8211 27.342C46.0225 27.1794 46.2084 27.0014 46.3795 26.8077C46.5505 26.6141 46.7045 26.4072 46.8398 26.1879C46.9759 25.9678 47.0926 25.7384 47.189 25.4989C47.2862 25.2593 47.3617 25.0136 47.4169 24.7608H50.7353V40.4033C50.7353 40.5145 50.7407 40.6249 50.7516 40.7354C50.7625 40.8458 50.7788 40.9554 50.8006 41.0643C50.8224 41.1732 50.8496 41.2805 50.8815 41.3871C50.9142 41.4928 50.9515 41.597 50.9935 41.6997C51.0363 41.8023 51.0837 41.9027 51.1358 41.9999C51.1887 42.0979 51.2455 42.1927 51.3069 42.2853C51.3691 42.3778 51.4352 42.4665 51.5052 42.552C51.576 42.6384 51.6506 42.72 51.7292 42.7986C51.8077 42.8771 51.8894 42.9518 51.9757 43.0218C52.0613 43.0925 52.1507 43.1586 52.2425 43.2201C52.335 43.2815 52.4307 43.3383 52.5286 43.3912C52.6259 43.4433 52.7262 43.4907 52.8288 43.5327C52.9315 43.5755 53.0365 43.6128 53.1422 43.6447C53.2488 43.6774 53.3561 43.7038 53.465 43.7256C53.5746 43.7474 53.6843 43.7637 53.7947 43.7746C53.9052 43.7855 54.0156 43.7909 54.1268 43.7909H58.422C58.4609 43.934 58.5075 44.0748 58.5635 44.2124C58.6195 44.3508 58.6833 44.4846 58.7548 44.6145C58.8264 44.7451 58.9057 44.8703 58.9928 44.9909C59.0799 45.1114 59.1732 45.2265 59.2743 45.3362C59.3747 45.4458 59.482 45.5485 59.5947 45.6457C59.7083 45.7421 59.8265 45.8316 59.9501 45.914C60.0738 45.9964 60.2021 46.0711 60.3351 46.138C60.4681 46.2049 60.6042 46.264 60.7442 46.3145C60.8841 46.3651 61.0265 46.4071 61.1719 46.4413C61.3165 46.4747 61.4627 46.4996 61.6113 46.5152C61.759 46.5315 61.9076 46.5385 62.0561 46.5369C62.2047 46.5346 62.3532 46.5245 62.501 46.505C62.6479 46.4856 62.7942 46.4568 62.938 46.4203C63.0819 46.3829 63.2234 46.3371 63.3619 46.2834C63.5011 46.2297 63.6356 46.1675 63.767 46.0975C63.8985 46.0268 64.0245 45.949 64.1466 45.8642C64.2687 45.7787 64.3845 45.6861 64.4957 45.5874C64.6062 45.4878 64.7104 45.3821 64.8084 45.2708C64.9064 45.1589 64.9974 45.0414 65.0813 44.9186C65.1653 44.7957 65.2423 44.6689 65.3108 44.5367C65.3792 44.4053 65.4399 44.2692 65.492 44.1308C65.5448 43.9915 65.5884 43.8492 65.6242 43.7054C65.6592 43.5607 65.6856 43.4145 65.7035 43.2675C65.7214 43.1198 65.7299 42.9712 65.7299 42.8227C65.7299 42.6741 65.7214 42.5264 65.7035 42.3786C65.6856 42.2309 65.6592 42.0854 65.6242 41.9408C65.5884 41.7961 65.5448 41.6546 65.492 41.5154C65.4399 41.3762 65.3792 41.2409 65.3108 41.1086C65.2423 40.9772 65.1653 40.8497 65.0813 40.7268C64.9974 40.6047 64.9064 40.4873 64.8084 40.3753C64.7104 40.2633 64.6062 40.1583 64.4957 40.0588C64.3845 39.9592 64.2687 39.8675 64.1466 39.7819C64.0245 39.6964 63.8985 39.6186 63.767 39.5486C63.6356 39.4786 63.5011 39.4164 63.3619 39.3627C63.2234 39.3083 63.0819 39.2632 62.938 39.2259C62.7942 39.1893 62.6479 39.1605 62.5002 39.1411C62.3532 39.1217 62.2047 39.1108 62.0561 39.1092C61.9076 39.1077 61.759 39.1147 61.6113 39.1302C61.4627 39.1465 61.3165 39.1714 61.1719 39.2049C61.0265 39.2383 60.8841 39.2803 60.7442 39.3316C60.6042 39.3822 60.4681 39.4405 60.3351 39.5082C60.2021 39.575 60.0738 39.6497 59.9501 39.7321C59.8265 39.8146 59.7083 39.904 59.5947 40.0004C59.482 40.0969 59.3747 40.2003 59.2743 40.31C59.1732 40.4188 59.0799 40.5339 58.9928 40.6545C58.9057 40.7758 58.8264 40.901 58.7548 41.0309C58.6833 41.1615 58.6195 41.2953 58.5635 41.4329C58.5075 41.5706 58.4609 41.7114 58.422 41.8552H54.1268C54.0311 41.8552 53.937 41.8459 53.8437 41.8272C53.7496 41.8086 53.6586 41.7814 53.5708 41.7448C53.4829 41.7082 53.3989 41.6631 53.3196 41.6103C53.2402 41.5574 53.1664 41.4975 53.0995 41.4298C53.0318 41.3622 52.9712 41.2891 52.9183 41.2097C52.8654 41.1304 52.8203 41.0472 52.7845 40.9586C52.748 40.8707 52.72 40.7805 52.7013 40.6864C52.6826 40.593 52.6733 40.4989 52.6733 40.4033V24.7608H58.422C58.4609 24.9047 58.5075 25.0447 58.5635 25.1831C58.6195 25.3208 58.6833 25.4545 58.7548 25.5852C58.8264 25.715 58.9057 25.8403 58.9928 25.9616C59.0799 26.0821 59.1732 26.1972 59.2743 26.3061C59.3747 26.4157 59.482 26.5192 59.5947 26.6156C59.7083 26.712 59.8265 26.8015 59.9501 26.8839C60.0738 26.9664 60.2021 27.041 60.3351 27.1079C60.4681 27.1748 60.6042 27.2339 60.7442 27.2844C60.8841 27.335 61.0265 27.3778 61.1719 27.4112C61.3165 27.4446 61.4627 27.4695 61.6113 27.4851C61.759 27.5014 61.9076 27.5084 62.0561 27.5068C62.2047 27.5053 62.3532 27.4944 62.501 27.475C62.6479 27.4555 62.7942 27.4267 62.938 27.3902C63.0819 27.3529 63.2234 27.3078 63.3619 27.2533C63.5011 27.1997 63.6356 27.1374 63.767 27.0675C63.8985 26.9975 64.0245 26.9197 64.1466 26.8341C64.2687 26.7486 64.3845 26.6568 64.4957 26.5573C64.6062 26.4577 64.7104 26.3528 64.8084 26.2408C64.9064 26.1288 64.9974 26.0113 65.0813 25.8885C65.1653 25.7664 65.2423 25.6388 65.3108 25.5066C65.3792 25.3752 65.4399 25.2399 65.492 25.1007C65.5448 24.9615 65.5884 24.8199 65.6242 24.6753C65.6592 24.5306 65.6856 24.3852 65.7035 24.2374C65.7214 24.0897 65.7299 23.9419 65.7299 23.7934C65.7299 23.6441 65.7214 23.4963 65.7035 23.3485C65.6856 23.2008 65.6592 23.0553 65.6242 22.9107C65.5884 22.766 65.5448 22.6245 65.492 22.4853C65.4399 22.3461 65.3792 22.2108 65.3108 22.0793C65.2423 21.9471 65.1653 21.8196 65.0813 21.6975C64.9974 21.5746 64.9064 21.4572 64.8084 21.3452C64.7104 21.234 64.6062 21.1282 64.4957 21.0287C64.3845 20.9299 64.2687 20.8374 64.1466 20.7518C64.0245 20.6663 63.8985 20.5885 63.767 20.5185C63.6356 20.4485 63.5011 20.3863 63.3619 20.3327C63.2234 20.2782 63.0819 20.2331 62.938 20.1958C62.7942 20.1592 62.6479 20.1305 62.5002 20.111C62.3532 20.0916 62.2047 20.0807 62.0561 20.0791C61.9076 20.0776 61.759 20.0846 61.6113 20.1009C61.4627 20.1165 61.3165 20.1413 61.1719 20.1748C61.0265 20.209 60.8841 20.251 60.7442 20.3015C60.6042 20.3521 60.4681 20.4112 60.3351 20.4781C60.2021 20.545 60.0738 20.6196 59.9501 20.7021C59.8265 20.7845 59.7083 20.8739 59.5947 20.9704C59.482 21.0676 59.3747 21.1702 59.2743 21.2799C59.1732 21.3888 59.0799 21.5039 58.9928 21.6252C58.9057 21.7457 58.8264 21.8709 58.7548 22.0008C58.6833 22.1315 58.6195 22.2652 58.5635 22.4029C58.5075 22.5413 58.4609 22.6821 58.422 22.8252H52.6733V7.1827C52.6733 7.08704 52.6826 6.99294 52.7013 6.89962C52.72 6.80629 52.748 6.7153 52.7845 6.62742C52.8203 6.53877 52.8654 6.45555 52.9183 6.37623C52.9712 6.29691 53.0318 6.2238 53.0995 6.15614C53.1664 6.08849 53.2402 6.0286 53.3196 5.97572C53.3989 5.92284 53.4829 5.87773 53.5708 5.84118C53.6586 5.80463 53.7496 5.77741 53.8437 5.75874C53.937 5.74008 54.0311 5.73075 54.1268 5.73075H58.422C58.4609 5.87462 58.5075 6.01538 58.5635 6.15303C58.6195 6.29068 58.6833 6.42445 58.7548 6.5551C58.8264 6.68497 58.9057 6.81096 58.9928 6.9315C59.0799 7.05204 59.1732 7.16714 59.2743 7.2768C59.3747 7.38567 59.482 7.48911 59.5947 7.58554C59.7083 7.68197 59.8265 7.77141 59.9501 7.85384C60.0738 7.93628 60.2021 8.01094 60.3351 8.07782C60.4681 8.14548 60.6042 8.2038 60.7442 8.25435C60.8841 8.30568 61.0265 8.34768 61.1719 8.38112C61.3165 8.41456 61.4627 8.43944 61.6113 8.45577C61.759 8.47133 61.9076 8.47833 62.0561 8.47677C62.2047 8.47522 62.3532 8.46433 62.5002 8.44489C62.6479 8.42544 62.7942 8.39745 62.938 8.36012C63.0819 8.32279 63.2234 8.27768 63.3619 8.22324C63.5011 8.16958 63.6356 8.10737 63.767 8.03738C63.8985 7.96738 64.0245 7.88962 64.1466 7.80407C64.2687 7.71852 64.3845 7.62676 64.4957 7.52721C64.6062 7.42767 64.7104 7.32268 64.8084 7.21069C64.9064 7.0987 64.9974 6.98127 65.0813 6.85918C65.1653 6.7363 65.2423 6.60876 65.3108 6.47733C65.3792 6.34512 65.4399 6.2098 65.492 6.0706C65.5448 5.93139 65.5884 5.78985 65.6242 5.6452C65.6592 5.50133 65.6856 5.35512 65.7035 5.20736C65.7214 5.0596 65.7299 4.91184 65.7299 4.7633C65.7299 4.61476 65.7214 4.46622 65.7035 4.31846C65.6856 4.17148 65.6592 4.02527 65.6242 3.88062C65.5884 3.73675 65.5448 3.59443 65.492 3.456C65.4399 3.3168 65.3792 3.1807 65.3108 3.04927C65.2423 2.91706 65.1653 2.7903 65.0813 2.66743C64.9974 2.54455 64.9064 2.42712 64.8084 2.31591C64.7104 2.20392 64.6062 2.09816 64.4957 1.99861C64.3845 1.89985 64.2687 1.8073 64.1466 1.72176C64.0245 1.63699 63.8985 1.55922 63.767 1.48845C63.6356 1.41846 63.5011 1.35624 63.3619 1.30258C63.2234 1.24892 63.0819 1.20304 62.938 1.16648C62.7942 1.12916 62.6479 1.10116 62.5002 1.08094C62.3532 1.0615 62.2047 1.05139 62.0561 1.04905C61.9076 1.0475 61.759 1.0545 61.6113 1.07083C61.4627 1.08638 61.3165 1.11127 61.1719 1.14549C61.0265 1.17893 60.8841 1.22092 60.7442 1.27147C60.6042 1.32202 60.4681 1.38113 60.3351 1.44801C60.2021 1.51489 60.0738 1.58955 59.9501 1.67198C59.8265 1.75442 59.7083 1.84385 59.5947 1.94106C59.482 2.0375 59.3747 2.14015 59.2743 2.24981C59.1732 2.35946 59.0799 2.47456 58.9928 2.5951C58.9057 2.71564 58.8264 2.84085 58.7548 2.9715C58.6833 3.10138 58.6195 3.23514 58.5635 3.37357C58.5075 3.51122 58.4609 3.65198 58.422 3.79508H54.1268C54.0156 3.79508 53.9052 3.80052 53.7947 3.81141C53.6843 3.8223 53.5746 3.83863 53.465 3.8604C53.3561 3.88218 53.2488 3.90862 53.1422 3.94128C53.0365 3.97317 52.9315 4.0105 52.8288 4.05327C52.7262 4.09527 52.6259 4.1427 52.5286 4.19559C52.4307 4.24769 52.335 4.30446 52.2425 4.3659C52.1507 4.42812 52.0613 4.49344 51.9757 4.56421C51.8894 4.6342 51.8077 4.70886 51.7292 4.78741C51.6506 4.86596 51.576 4.94761 51.5052 5.03394C51.4352 5.11948 51.3691 5.20814 51.3069 5.30069C51.2455 5.39323 51.1887 5.48811 51.1358 5.5861C51.0837 5.68409 51.0363 5.78363 50.9935 5.88629C50.9515 5.98894 50.9142 6.09315 50.8815 6.19969C50.8496 6.30546 50.8224 6.41278 50.8006 6.52166C50.7788 6.63054 50.7625 6.74019 50.7516 6.85062C50.7407 6.96105 50.7353 7.07149 50.7353 7.1827V22.8252H47.4169C47.3617 22.5724 47.2862 22.3267 47.189 22.0871C47.0926 21.8476 46.9759 21.6182 46.8398 21.3981C46.7045 21.1788 46.5505 20.9719 46.3795 20.7783C46.2084 20.5846 46.0225 20.4065 45.8211 20.244C45.6196 20.0822 45.4058 19.9384 45.1803 19.8124C44.9547 19.6864 44.7199 19.5806 44.4757 19.4951C44.2315 19.4088 43.9826 19.3442 43.7275 19.3007C43.4724 19.2571 43.2158 19.2353 42.9568 19.2353C42.6986 19.2353 42.442 19.2571 42.1869 19.3007C41.9318 19.3442 41.6822 19.4088 41.4388 19.4951C41.1946 19.5806 40.9597 19.6864 40.7342 19.8124C40.5079 19.9384 40.2948 20.0822 40.0934 20.244C39.892 20.4065 39.7053 20.5846 39.5342 20.7783C39.3631 20.9719 39.2099 21.1788 39.0738 21.3981C38.9385 21.6182 38.8219 21.8476 38.7254 22.0871C38.6282 22.3267 38.5528 22.5724 38.4976 22.8252H35.1784V7.1827ZM23.905 6.54421C23.7876 6.54421 23.6717 6.53255 23.5566 6.50999C23.4423 6.48744 23.3303 6.454 23.2222 6.40889C23.1141 6.36456 23.0114 6.31013 22.9134 6.2448C22.8162 6.18025 22.726 6.10637 22.6428 6.02394C22.5604 5.9415 22.4865 5.85129 22.4212 5.75408C22.3558 5.65687 22.3006 5.55421 22.2563 5.44611C22.2112 5.33801 22.177 5.2268 22.1544 5.11248C22.1311 4.99739 22.1194 4.88151 22.1194 4.76486C22.1194 4.64743 22.1311 4.53155 22.1536 4.41723C22.1762 4.30213 22.2096 4.19092 22.2547 4.08282C22.2991 3.97472 22.3543 3.87207 22.4196 3.77486C22.4842 3.67765 22.558 3.58743 22.6405 3.505C22.7237 3.42179 22.8139 3.34791 22.9111 3.28336C23.0083 3.21803 23.111 3.16281 23.2191 3.11849C23.3272 3.07338 23.4392 3.03994 23.5535 3.01661C23.6686 2.99406 23.7844 2.98239 23.9019 2.98239C24.0185 2.98239 24.1344 2.99328 24.2495 3.01661C24.3646 3.03916 24.4758 3.0726 24.5839 3.11771C24.692 3.16204 24.7954 3.21725 24.8927 3.2818C24.9899 3.34713 25.0801 3.42101 25.1625 3.50344C25.2457 3.58666 25.3196 3.67609 25.3849 3.7733C25.4495 3.87051 25.5047 3.97317 25.5498 4.08127C25.5941 4.18937 25.6284 4.30058 25.6509 4.41567C25.6742 4.52999 25.6851 4.64587 25.6851 4.7633C25.6851 4.87995 25.6742 4.99583 25.6509 5.11015C25.6284 5.22447 25.5949 5.33646 25.5498 5.44378C25.5055 5.55188 25.4503 5.65453 25.3857 5.75175C25.3204 5.84896 25.2465 5.93917 25.1641 6.0216C25.0816 6.10404 24.9914 6.17792 24.8942 6.24325C24.797 6.30779 24.6943 6.36301 24.5862 6.40734C24.4781 6.45244 24.3669 6.48666 24.2526 6.50922C24.1375 6.53255 24.0216 6.54343 23.905 6.54421ZM23.905 25.5712C23.7876 25.5712 23.6725 25.5603 23.5574 25.537C23.443 25.5144 23.3318 25.481 23.2237 25.4359C23.1156 25.3915 23.013 25.3363 22.9158 25.2718C22.8186 25.2064 22.7283 25.1333 22.6459 25.0509C22.5635 24.9677 22.4896 24.8783 22.4243 24.781C22.3597 24.6838 22.3045 24.5812 22.2602 24.4739C22.2151 24.3658 22.1816 24.2545 22.1583 24.1402C22.1357 24.0251 22.1241 23.91 22.1241 23.7934C22.1241 23.6759 22.1357 23.5608 22.1583 23.4457C22.1816 23.3314 22.2151 23.2202 22.2602 23.1121C22.3045 23.0048 22.3597 22.9021 22.4243 22.8049C22.4896 22.7077 22.5635 22.6183 22.6459 22.5359C22.7283 22.4526 22.8186 22.3795 22.9158 22.3142C23.013 22.2497 23.1156 22.1944 23.2237 22.1501C23.3318 22.105 23.443 22.0716 23.5574 22.049C23.6725 22.0257 23.7876 22.0148 23.905 22.0148C24.0216 22.0148 24.1375 22.0257 24.2518 22.049C24.3669 22.0716 24.4781 22.105 24.5862 22.1501C24.6943 22.1944 24.797 22.2497 24.8942 22.3142C24.9914 22.3795 25.0809 22.4526 25.1641 22.5359C25.2465 22.6183 25.3204 22.7077 25.3849 22.8049C25.4503 22.9021 25.5047 23.0048 25.5498 23.1121C25.5941 23.2202 25.6284 23.3314 25.6509 23.4457C25.6742 23.5608 25.6851 23.6759 25.6851 23.7934C25.6851 23.91 25.6735 24.0251 25.6509 24.1394C25.6276 24.2545 25.5941 24.3658 25.549 24.4731C25.5047 24.5812 25.4495 24.6831 25.3842 24.7803C25.3196 24.8775 25.2457 24.9669 25.1633 25.0501C25.0801 25.1326 24.9906 25.2064 24.8934 25.271C24.7962 25.3355 24.6936 25.3908 24.5855 25.4351C24.4781 25.4802 24.3669 25.5136 24.2518 25.537C24.1375 25.5595 24.0216 25.5712 23.905 25.5712ZM23.905 44.6013C23.7876 44.6013 23.6725 44.5896 23.5574 44.567C23.443 44.5445 23.3318 44.5103 23.2237 44.4659C23.1156 44.4216 23.013 44.3664 22.9158 44.3018C22.8186 44.2365 22.7283 44.1626 22.6459 44.0802C22.5635 43.9978 22.4896 43.9083 22.4243 43.8111C22.3597 43.7139 22.3045 43.6113 22.2602 43.5032C22.2151 43.3958 22.1816 43.2846 22.1583 43.1695C22.1357 43.0552 22.1241 42.9393 22.1241 42.8227C22.1241 42.706 22.1357 42.5901 22.1583 42.4758C22.1816 42.3615 22.2151 42.2503 22.2602 42.1422C22.3045 42.0349 22.3597 41.9322 22.4243 41.835C22.4896 41.7378 22.5635 41.6484 22.6459 41.5652C22.7283 41.4827 22.8186 41.4088 22.9158 41.3443C23.013 41.2797 23.1156 41.2245 23.2237 41.1802C23.3318 41.1351 23.443 41.1016 23.5574 41.0791C23.6725 41.0558 23.7876 41.0449 23.905 41.0449C24.0216 41.0449 24.1375 41.0558 24.2518 41.0791C24.3669 41.1016 24.4781 41.1351 24.5862 41.1802C24.6943 41.2245 24.797 41.2797 24.8942 41.3443C24.9914 41.4088 25.0809 41.4827 25.1641 41.5652C25.2465 41.6484 25.3204 41.7378 25.3849 41.835C25.4503 41.9322 25.5047 42.0349 25.5498 42.1422C25.5941 42.2503 25.6284 42.3615 25.6509 42.4758C25.6742 42.5901 25.6851 42.706 25.6851 42.8227C25.6851 42.9393 25.6735 43.0552 25.6509 43.1695C25.6276 43.2838 25.5941 43.3951 25.549 43.5032C25.5047 43.6113 25.4495 43.7131 25.3842 43.8103C25.3196 43.9076 25.2457 43.997 25.1633 44.0794C25.0801 44.1626 24.9906 44.2357 24.8934 44.3011C24.7962 44.3656 24.6936 44.4208 24.5855 44.4652C24.4781 44.5103 24.3669 44.5437 24.2518 44.567C24.1375 44.5896 24.0216 44.6013 23.905 44.6013ZM62.0095 41.0449C62.1261 41.0449 62.242 41.0558 62.3571 41.0791C62.4714 41.1016 62.5826 41.1351 62.6907 41.1802C62.7988 41.2245 62.9015 41.2797 62.9987 41.3443C63.0959 41.4088 63.1861 41.4827 63.2685 41.5652C63.351 41.6484 63.4249 41.7378 63.4902 41.835C63.5547 41.9322 63.61 42.0349 63.6543 42.1422C63.6994 42.2503 63.7328 42.3615 63.7562 42.4758C63.7787 42.5901 63.7904 42.706 63.7904 42.8227C63.7904 42.9393 63.7787 43.0552 63.7562 43.1695C63.7328 43.2846 63.6994 43.3958 63.6543 43.5032C63.61 43.6113 63.5547 43.7139 63.4902 43.8111C63.4249 43.9083 63.351 43.9978 63.2685 44.0802C63.1861 44.1634 63.0959 44.2365 62.9987 44.3018C62.9015 44.3664 62.7988 44.4216 62.6907 44.4659C62.5826 44.5103 62.4714 44.5445 62.3571 44.567C62.242 44.5896 62.1261 44.6013 62.0095 44.6013C61.8928 44.6013 61.7769 44.5896 61.6618 44.567C61.5475 44.5445 61.4363 44.5103 61.3282 44.4659C61.2201 44.4216 61.1175 44.3664 61.0202 44.3018C60.923 44.2365 60.8328 44.1634 60.7504 44.0802C60.668 43.9978 60.5941 43.9083 60.5287 43.8111C60.4642 43.7139 60.409 43.6113 60.3647 43.5032C60.3195 43.3958 60.2861 43.2846 60.2636 43.1695C60.2402 43.0552 60.2293 42.9393 60.2293 42.8227C60.2293 42.706 60.241 42.5909 60.2636 42.4758C60.2869 42.3615 60.3203 42.2503 60.3654 42.143C60.4098 42.0349 60.465 41.9322 60.5295 41.8358C60.5948 41.7386 60.6687 41.6484 60.7512 41.5659C60.8336 41.4835 60.9238 41.4096 61.021 41.3451C61.1182 41.2805 61.2209 41.2253 61.3282 41.1802C61.4363 41.1359 61.5475 41.1016 61.6626 41.0791C61.7769 41.0565 61.8928 41.0449 62.0095 41.0449ZM62.0095 22.0148C62.1261 22.0148 62.242 22.0257 62.3571 22.049C62.4714 22.0716 62.5826 22.105 62.6907 22.1501C62.7988 22.1944 62.9015 22.2497 62.9987 22.3142C63.0959 22.3795 63.1861 22.4526 63.2685 22.5359C63.351 22.6183 63.4249 22.7077 63.4902 22.8049C63.5547 22.9021 63.61 23.0048 63.6543 23.1121C63.6994 23.2202 63.7328 23.3314 63.7562 23.4457C63.7787 23.5608 63.7904 23.6759 63.7904 23.7934C63.7904 23.91 63.7787 24.0251 63.7562 24.1402C63.7328 24.2545 63.6994 24.3658 63.6543 24.4739C63.61 24.5812 63.5547 24.6838 63.4902 24.781C63.4249 24.8783 63.351 24.9677 63.2685 25.0509C63.1861 25.1333 63.0959 25.2064 62.9987 25.2718C62.9015 25.3363 62.7988 25.3915 62.6907 25.4359C62.5826 25.481 62.4714 25.5144 62.3571 25.537C62.242 25.5603 62.1261 25.5712 62.0095 25.5712C61.8928 25.5712 61.7769 25.5603 61.6618 25.537C61.5475 25.5144 61.4363 25.481 61.3282 25.4359C61.2201 25.3915 61.1175 25.3363 61.0202 25.2718C60.923 25.2064 60.8328 25.1333 60.7504 25.0509C60.668 24.9677 60.5941 24.8783 60.5287 24.781C60.4642 24.6838 60.409 24.5812 60.3647 24.4739C60.3195 24.3658 60.2861 24.2545 60.2636 24.1402C60.2402 24.0251 60.2293 23.91 60.2293 23.7934C60.2293 23.6759 60.241 23.5608 60.2636 23.4465C60.2869 23.3314 60.3203 23.221 60.3654 23.1129C60.4098 23.0048 60.465 22.9029 60.5295 22.8057C60.5948 22.7085 60.6687 22.6191 60.7512 22.5359C60.8336 22.4534 60.9238 22.3803 61.021 22.315C61.1182 22.2504 61.2209 22.1952 61.3282 22.1509C61.4363 22.1058 61.5475 22.0723 61.6626 22.049C61.7769 22.0265 61.8928 22.0148 62.0095 22.0148ZM62.0095 2.98472C62.1269 2.98472 62.2428 2.99561 62.3579 3.01816C62.4722 3.0415 62.5842 3.07494 62.6923 3.11926C62.8004 3.16437 62.9038 3.21881 63.001 3.28413C63.0982 3.34868 63.1884 3.42256 63.2717 3.505C63.3541 3.58743 63.4287 3.67765 63.4933 3.77486C63.5586 3.87207 63.6138 3.97472 63.6589 4.08282C63.7033 4.19092 63.7375 4.30213 63.76 4.41723C63.7834 4.53155 63.795 4.64743 63.795 4.76486C63.795 4.88151 63.7834 4.99739 63.7608 5.11248C63.7375 5.2268 63.7041 5.33879 63.6589 5.44689C63.6146 5.55499 63.5594 5.65764 63.4949 5.75486C63.4295 5.85207 63.3556 5.94228 63.2724 6.02471C63.19 6.10715 63.0998 6.18103 63.0026 6.24636C62.9046 6.31168 62.8019 6.36612 62.6938 6.41123C62.5857 6.45555 62.4737 6.48977 62.3594 6.51233C62.2443 6.53488 62.1285 6.54654 62.011 6.54654C61.8944 6.54654 61.7777 6.53488 61.6634 6.51155C61.5483 6.489 61.4371 6.45478 61.3282 6.41045C61.2201 6.36534 61.1175 6.31013 61.0202 6.24558C60.923 6.18025 60.8328 6.10637 60.7504 6.02394C60.6672 5.94072 60.5933 5.85051 60.5287 5.7533C60.4634 5.65609 60.409 5.55343 60.3639 5.44534C60.3195 5.33724 60.2853 5.22525 60.2628 5.11093C60.2402 4.99583 60.2286 4.87995 60.2293 4.7633C60.2293 4.64665 60.241 4.53077 60.2636 4.41645C60.2869 4.30213 60.3203 4.19092 60.3654 4.08282C60.4098 3.97472 60.465 3.87285 60.5295 3.77563C60.5948 3.67842 60.6687 3.58899 60.7512 3.50655C60.8336 3.42412 60.9238 3.35024 61.021 3.28491C61.1182 3.22036 61.2209 3.16515 61.3282 3.12082C61.4363 3.07571 61.5475 3.04227 61.6626 3.01894C61.7769 2.99639 61.8928 2.98472 62.0095 2.98472ZM42.9568 21.1702C43.1295 21.1702 43.3006 21.1873 43.4701 21.2208C43.6397 21.2542 43.8037 21.304 43.9632 21.3701C44.1226 21.4362 44.2742 21.5171 44.4173 21.6127C44.5612 21.7084 44.6942 21.8173 44.8163 21.9394C44.9376 22.0615 45.0473 22.1937 45.1429 22.3375C45.2386 22.4806 45.3195 22.6323 45.3856 22.7917C45.4517 22.9504 45.5014 23.1152 45.5349 23.284C45.5691 23.4527 45.5854 23.6238 45.5854 23.7965C45.5854 23.9684 45.5683 24.1394 45.5349 24.3082C45.5014 24.4777 45.4509 24.6418 45.3848 24.8013C45.3187 24.9599 45.2378 25.1116 45.1421 25.2547C45.0457 25.3985 44.9368 25.5307 44.8147 25.6528C44.6926 25.7742 44.5597 25.883 44.4166 25.9787C44.2727 26.0743 44.121 26.1552 43.9616 26.2213C43.8022 26.2874 43.6381 26.3372 43.4686 26.3706C43.299 26.4041 43.1279 26.4204 42.9553 26.4204C42.7826 26.4204 42.6123 26.4033 42.4428 26.3699C42.2732 26.3364 42.1092 26.2859 41.9497 26.2198C41.7903 26.1544 41.6387 26.0728 41.4956 25.9771C41.3517 25.8815 41.2195 25.7726 41.0974 25.6505C40.9753 25.5284 40.8664 25.3954 40.7708 25.2523C40.6751 25.1085 40.5942 24.9576 40.5281 24.7982C40.462 24.6387 40.4122 24.4746 40.3788 24.3051C40.3454 24.1363 40.329 23.9652 40.329 23.7934C40.329 23.6207 40.3461 23.4504 40.3804 23.2817C40.4138 23.1121 40.4643 22.9488 40.5304 22.7894C40.5965 22.6307 40.6774 22.4791 40.7731 22.336C40.8695 22.1929 40.9784 22.0607 41.1005 21.9386C41.2226 21.8173 41.3548 21.7084 41.4979 21.6127C41.6418 21.5171 41.7926 21.4362 41.9521 21.3701C42.1115 21.3048 42.2756 21.255 42.4451 21.2208C42.6139 21.1873 42.785 21.1702 42.9568 21.1702Z" fill="black"/>
</g>
</svg>
