<svg width="61" height="45" viewBox="0 0 61 45" fill="none" xmlns="http://www.w3.org/2000/svg">
<mask id="mask0_28092_2672" style="mask-type:luminance" maskUnits="userSpaceOnUse" x="0" y="0" width="14" height="45">
<path d="M0 0H13.7853V45H0V0Z" fill="white"/>
</mask>
<g mask="url(#mask0_28092_2672)">
<path fill-rule="evenodd" clip-rule="evenodd" d="M12.5189 5H13.7696V0H12.5189C8.3734 0 5.01333 3.35799 5.01333 7.5V16.25C5.01333 17.0375 4.64276 17.7779 4.01222 18.2501L1.01029 20.5006C0.409487 20.9506 0.0430598 21.6468 0.0119481 22.3963C-0.0198551 23.1464 0.287805 23.8703 0.849199 24.3688L4.17331 27.3202C4.70774 27.7952 5.01333 28.4755 5.01333 29.189V37.5C5.01333 41.6427 8.3734 45 12.5189 45H13.7696V40H12.5189C11.1368 40 10.0168 38.8814 10.0168 37.5V29.189C10.0168 27.0472 9.10003 25.0069 7.49743 23.5834L6.46245 22.6645L7.01485 22.2504C8.90437 20.8338 10.0168 18.611 10.0168 16.25V7.5C10.0168 6.11933 11.1368 5 12.5189 5Z" fill="black"/>
</g>
<mask id="mask1_28092_2672" style="mask-type:luminance" maskUnits="userSpaceOnUse" x="46" y="0" width="15" height="45">
<path d="M60.6779 0H46.8926V45H60.6779V0Z" fill="white"/>
</mask>
<g mask="url(#mask1_28092_2672)">
<path fill-rule="evenodd" clip-rule="evenodd" d="M48.159 5H46.9083V0H48.159C52.3045 0 55.6645 3.35799 55.6645 7.5V16.25C55.6645 17.0375 56.0351 17.7779 56.6656 18.2501L59.6676 20.5006C60.2684 20.9506 60.6348 21.6468 60.6659 22.3963C60.6977 23.1464 60.3901 23.8703 59.8287 24.3688L56.5045 27.3202C55.9701 27.7952 55.6645 28.4755 55.6645 29.189V37.5C55.6645 41.6427 52.3045 45 48.159 45H46.9083V40H48.159C49.541 40 50.6611 38.8814 50.6611 37.5V29.189C50.6611 27.0472 51.5778 25.0069 53.1804 23.5834L54.2154 22.6645L53.663 22.2504C51.7735 20.8338 50.6611 18.611 50.6611 16.25V7.5C50.6611 6.11933 49.541 5 48.159 5Z" fill="black"/>
</g>
<path fill-rule="evenodd" clip-rule="evenodd" d="M13.8926 33.6486C13.8926 36.6041 16.2885 39 19.2439 39H35.8601C34.4266 38.9958 33.0077 38.7114 31.6831 38.1627C30.3485 37.6099 29.1359 36.7997 28.1144 35.7782C27.093 34.7568 26.2827 33.5441 25.7299 32.2096C25.1771 30.875 24.8926 29.4446 24.8926 28H35.8925V17.0001C37.3371 17.0001 38.7675 17.2847 40.1021 17.8375C41.4366 18.3903 42.6493 19.2005 43.6707 20.222C44.6922 21.2434 45.5024 22.456 46.0552 23.7906C46.608 25.1252 46.8925 26.5556 46.8925 28.0001L35.8925 28L35.8926 39H41.5412C44.4967 39 46.8926 36.6041 46.8926 33.6486V11.3514C46.8926 8.39588 44.4967 6 41.5412 6L19.2439 6C16.2885 6 13.8926 8.39588 13.8926 11.3514L13.8926 33.6486ZM13.8926 17C13.8926 18.4446 14.1771 19.875 14.7299 21.2095C15.2828 22.5441 16.093 23.7568 17.1144 24.7782C18.1359 25.7996 19.3485 26.6099 20.6831 27.1627C22.0177 27.7155 23.4481 28 24.8926 28L24.8926 17.0001L35.8925 17.0001C35.8925 15.5556 35.6081 14.1252 35.0553 12.7906C34.5025 11.456 33.6922 10.2434 32.6708 9.22195C31.6493 8.2005 30.4367 7.39025 29.1021 6.83745C27.7675 6.28464 26.3371 6.00012 24.8926 6.00012L24.8926 17.0001L13.8926 17Z" fill="black"/>
</svg>
