<svg width="185" height="57" viewBox="0 0 185 57" fill="none" xmlns="http://www.w3.org/2000/svg">
<mask id="mask0_28094_2710" style="mask-type:luminance" maskUnits="userSpaceOnUse" x="0" y="5" width="49" height="49">
<path d="M0 5H48.0799V53.0799H0V5Z" fill="white"/>
</mask>
<g mask="url(#mask0_28094_2710)">
<path fill-rule="evenodd" clip-rule="evenodd" d="M0 45.2525C0 49.5554 3.48794 53.0433 7.7909 53.0433H31.9817C29.8944 53.0371 27.8289 52.6234 25.9002 51.8247C23.9575 51.0198 22.1922 49.84 20.7052 48.3531C19.2175 46.8662 18.0385 45.1 17.2336 43.1574C16.4287 41.2147 16.0142 39.132 16.0142 37.0292H32.0284V21.015C34.1313 21.015 36.2139 21.4287 38.1566 22.2336C40.1 23.0385 41.8654 24.2183 43.3523 25.7052C44.8393 27.1922 46.019 28.9575 46.8239 30.901C47.6288 32.8436 48.0426 34.9263 48.0426 37.0292H32.0284V53.0433H40.2525C44.5546 53.0433 48.0426 49.5554 48.0426 45.2525V12.7909C48.0426 8.48872 44.5546 5 40.2525 5H7.7909C3.48794 5 0 8.48872 0 12.7909V45.2525ZM0 21.015C0 23.1178 0.414509 25.1997 1.21942 27.1432C2.02355 29.0858 3.2033 30.8512 4.69025 32.3389C6.17797 33.8259 7.94332 35.0048 9.88599 35.8097C11.8287 36.6147 13.9113 37.0292 16.0142 37.0292V21.015H32.0284C32.0284 18.9121 31.6147 16.8294 30.8097 14.8868C30.0048 12.9433 28.8251 11.178 27.3381 9.69103C25.8512 8.20408 24.0858 7.02433 22.1424 6.21942C20.1997 5.41451 18.1171 5.00078 16.0142 5.00078V21.015H0Z" fill="white"/>
</g>
<mask id="mask1_28094_2710" style="mask-type:luminance" maskUnits="userSpaceOnUse" x="48" y="6" width="18" height="46">
<path d="M48 6H65.7276V51.5913H48V6Z" fill="white"/>
</mask>
<g mask="url(#mask1_28094_2710)">
<path d="M35.1784 12.1827C35.1784 12.0715 35.1729 11.9611 35.1621 11.8506C35.1512 11.7402 35.1356 11.6305 35.1138 11.5217C35.0921 11.4128 35.0648 11.3055 35.033 11.1997C35.0003 11.0932 34.963 10.9889 34.921 10.8863C34.8782 10.7836 34.8308 10.6841 34.7787 10.5861C34.7258 10.4881 34.669 10.3932 34.6076 10.3007C34.5453 10.2081 34.4792 10.1195 34.4092 10.0339C34.3385 9.94761 34.2638 9.86596 34.1853 9.78741C34.1067 9.70886 34.0251 9.6342 33.9387 9.56421C33.8532 9.49344 33.7638 9.42812 33.6712 9.3659C33.5795 9.30446 33.4838 9.24769 33.3858 9.19559C33.2878 9.1427 33.1875 9.09527 33.0848 9.05327C32.983 9.0105 32.878 8.97317 32.7722 8.94128C32.6657 8.90862 32.5576 8.88218 32.4487 8.8604C32.3398 8.83863 32.2302 8.8223 32.1197 8.81141C32.0093 8.80052 31.8981 8.79508 31.7877 8.79508H27.4925C27.4536 8.65198 27.4061 8.51122 27.3509 8.37279C27.2949 8.23514 27.2312 8.1006 27.1596 7.97073C27.0873 7.84007 27.008 7.71487 26.9216 7.59432C26.8345 7.473 26.7404 7.35791 26.6401 7.24825C26.539 7.13937 26.4317 7.03594 26.3189 6.93951C26.2054 6.8423 26.0872 6.75286 25.9635 6.67043C25.8391 6.58799 25.7108 6.51333 25.5778 6.44645C25.4448 6.37879 25.3087 6.32047 25.1687 6.26914C25.0288 6.21859 24.8864 6.17659 24.741 6.14315C24.5964 6.10894 24.4494 6.08405 24.3016 6.0685C24.1531 6.05216 24.0053 6.04516 23.856 6.04672C23.7075 6.04828 23.5589 6.05916 23.4112 6.07861C23.2634 6.09805 23.118 6.12682 22.9733 6.16337C22.8294 6.2007 22.6879 6.24659 22.5487 6.30025C22.4103 6.35391 22.275 6.41612 22.1443 6.48689C22.0129 6.55689 21.8861 6.63465 21.764 6.7202C21.6419 6.80497 21.526 6.89751 21.4148 6.99706C21.3044 7.0966 21.1994 7.20159 21.1014 7.31358C21.0034 7.42556 20.9124 7.543 20.8284 7.66587C20.7445 7.78875 20.6675 7.91629 20.599 8.04772C20.5306 8.17992 20.4699 8.31524 20.4171 8.45445C20.3649 8.59366 20.3214 8.73597 20.2856 8.88062C20.2506 9.0245 20.2234 9.1707 20.2055 9.31846C20.1884 9.46622 20.1791 9.61398 20.1791 9.7633C20.1791 9.91184 20.1884 10.0604 20.2055 10.2074C20.2234 10.3551 20.2506 10.5013 20.2856 10.646C20.3214 10.7906 20.3649 10.9322 20.4171 11.0714C20.4699 11.2106 20.5306 11.3467 20.599 11.4781C20.6675 11.6103 20.7445 11.7379 20.8284 11.8607C20.9124 11.9828 21.0034 12.1003 21.1014 12.2122C21.1994 12.3242 21.3044 12.43 21.4148 12.5295C21.526 12.6283 21.6419 12.7209 21.764 12.8064C21.8861 12.8919 22.0129 12.9697 22.1443 13.0397C22.275 13.1097 22.4103 13.1719 22.5487 13.2256C22.6879 13.28 22.8294 13.3251 22.9733 13.3625C23.118 13.3998 23.2634 13.4278 23.4112 13.4472C23.5589 13.4667 23.7075 13.4775 23.856 13.4791C24.0053 13.4814 24.1531 13.4737 24.3016 13.4581C24.4494 13.4418 24.5964 13.4169 24.741 13.3834C24.8864 13.35 25.0288 13.3072 25.1687 13.2567C25.3087 13.2061 25.4448 13.147 25.5778 13.0801C25.7108 13.0133 25.8391 12.9386 25.9635 12.8562C26.0872 12.773 26.2054 12.6835 26.3189 12.5871C26.4317 12.4907 26.539 12.3872 26.6401 12.2776C26.7404 12.1679 26.8345 12.0528 26.9216 11.9323C27.008 11.8117 27.0873 11.6858 27.1596 11.5559C27.2312 11.4252 27.2949 11.2915 27.3509 11.153C27.4061 11.0154 27.4536 10.8746 27.4925 10.7307H31.7877C31.8825 10.7307 31.9774 10.7401 32.0707 10.7587C32.1648 10.7774 32.255 10.8046 32.3437 10.8412C32.4316 10.8777 32.5156 10.9228 32.5949 10.9757C32.6742 11.0286 32.7473 11.0885 32.815 11.1561C32.8826 11.2238 32.9425 11.2969 32.9962 11.3762C33.0491 11.4556 33.0934 11.5388 33.1299 11.6274C33.1665 11.7153 33.1945 11.8063 33.2132 11.8996C33.2318 11.9929 33.2412 12.087 33.2412 12.1827V27.8252H27.4925C27.4536 27.6821 27.4061 27.5413 27.3509 27.4029C27.2949 27.2652 27.2312 27.1315 27.1596 27.0008C27.0881 26.8709 27.0088 26.7457 26.9216 26.6252C26.8345 26.5039 26.7412 26.3888 26.6401 26.2799C26.5398 26.1702 26.4325 26.0676 26.3197 25.9704C26.2062 25.8739 26.088 25.7845 25.9643 25.7021C25.8399 25.6196 25.7116 25.545 25.5794 25.4781C25.4464 25.4112 25.3095 25.3521 25.1703 25.3015C25.0303 25.251 24.888 25.209 24.7426 25.1748C24.5979 25.1413 24.4509 25.1165 24.3032 25.1009C24.1554 25.0846 24.0069 25.0776 23.8583 25.0791C23.7098 25.0807 23.5613 25.0916 23.4135 25.111C23.2665 25.1305 23.1203 25.1592 22.9764 25.1958C22.8326 25.2331 22.691 25.2782 22.5518 25.3327C22.4134 25.3863 22.2788 25.4485 22.1474 25.5185C22.016 25.5885 21.89 25.6663 21.7679 25.7518C21.6458 25.8374 21.5299 25.9299 21.4187 26.0287C21.3083 26.1282 21.2041 26.234 21.1061 26.3452C21.0073 26.4572 20.9163 26.5746 20.8323 26.6975C20.7483 26.8196 20.6721 26.9471 20.6037 27.0793C20.5353 27.2108 20.4746 27.3461 20.4217 27.4853C20.3696 27.6245 20.3261 27.766 20.2903 27.9107C20.2553 28.0553 20.2288 28.2008 20.211 28.3485C20.1931 28.4963 20.1837 28.6441 20.1837 28.7934C20.1837 28.9419 20.1931 29.0897 20.211 29.2374C20.2288 29.3852 20.2553 29.5306 20.2903 29.6753C20.3261 29.8199 20.3696 29.9615 20.4217 30.1007C20.4746 30.2399 20.5353 30.3752 20.6037 30.5066C20.6721 30.6388 20.7483 30.7664 20.8323 30.8885C20.9163 31.0113 21.0073 31.1288 21.1061 31.2408C21.2041 31.3528 21.3083 31.4577 21.4187 31.5573C21.5299 31.6568 21.6458 31.7486 21.7679 31.8341C21.89 31.9197 22.016 31.9975 22.1474 32.0675C22.2788 32.1374 22.4134 32.1997 22.5518 32.2533C22.691 32.3078 22.8326 32.3529 22.9764 32.3902C23.1203 32.4267 23.2665 32.4555 23.4135 32.475C23.5613 32.4944 23.7098 32.5053 23.8583 32.5068C24.0069 32.5084 24.1554 32.5014 24.3032 32.4851C24.4509 32.4695 24.5979 32.4446 24.7426 32.4112C24.888 32.3778 25.0303 32.335 25.1703 32.2844C25.3103 32.2339 25.4464 32.1748 25.5794 32.1079C25.7116 32.041 25.8399 31.9664 25.9643 31.8839C26.088 31.8015 26.2062 31.712 26.3197 31.6156C26.4325 31.5192 26.5398 31.4157 26.6401 31.3061C26.7412 31.1972 26.8345 31.0821 26.9216 30.9616C27.0088 30.8403 27.0881 30.715 27.1596 30.5852C27.2312 30.4545 27.2949 30.3208 27.3509 30.1831C27.4061 30.0447 27.4536 29.9047 27.4925 29.7608H33.2412V45.4033C33.2412 45.4989 33.2318 45.593 33.2132 45.6864C33.1945 45.7805 33.1665 45.8707 33.1299 45.9586C33.0934 46.0472 33.0491 46.1304 32.9962 46.2097C32.9425 46.2891 32.8826 46.3622 32.815 46.4298C32.7473 46.4975 32.6742 46.5574 32.5949 46.6103C32.5156 46.6631 32.4316 46.7082 32.3437 46.7448C32.255 46.7814 32.1648 46.8086 32.0707 46.8272C31.9774 46.8459 31.8825 46.8552 31.7877 46.8552H27.4925C27.4536 46.7114 27.4061 46.5706 27.3509 46.4329C27.2949 46.2953 27.2312 46.1615 27.1596 46.0309C27.0881 45.901 27.0088 45.7758 26.9216 45.6545C26.8345 45.5339 26.7412 45.4188 26.6401 45.31C26.5398 45.2003 26.4325 45.0969 26.3197 45.0004C26.2062 44.904 26.088 44.8146 25.9643 44.7321C25.8399 44.6497 25.7116 44.575 25.5794 44.5082C25.4464 44.4405 25.3103 44.3822 25.1703 44.3316C25.0303 44.2803 24.888 44.2383 24.7426 44.2049C24.5979 44.1714 24.4509 44.1465 24.3032 44.1302C24.1554 44.1147 24.0069 44.1077 23.8583 44.1092C23.7098 44.1108 23.5613 44.1217 23.4135 44.1411C23.2665 44.1605 23.1203 44.1893 22.9764 44.2259C22.8326 44.2632 22.691 44.3083 22.5518 44.3627C22.4134 44.4164 22.2788 44.4786 22.1474 44.5486C22.016 44.6186 21.89 44.6964 21.7679 44.7819C21.6458 44.8675 21.5299 44.9592 21.4187 45.0588C21.3083 45.1583 21.2041 45.2633 21.1061 45.3753C21.0073 45.4873 20.9163 45.6047 20.8323 45.7268C20.7483 45.8497 20.6721 45.9772 20.6037 46.1086C20.5353 46.2409 20.4746 46.3762 20.4217 46.5154C20.3696 46.6546 20.3261 46.7961 20.2903 46.9408C20.2553 47.0854 20.2288 47.2309 20.211 47.3786C20.1931 47.5264 20.1837 47.6741 20.1837 47.8227C20.1837 47.9712 20.1931 48.1198 20.211 48.2675C20.2288 48.4145 20.2553 48.5607 20.2903 48.7054C20.3261 48.8492 20.3696 48.9915 20.4217 49.1308C20.4746 49.2692 20.5353 49.4053 20.6037 49.5367C20.6721 49.6689 20.7483 49.7957 20.8323 49.9186C20.9163 50.0414 21.0073 50.1589 21.1061 50.2708C21.2041 50.3821 21.3083 50.4878 21.4187 50.5874C21.5299 50.6861 21.6458 50.7787 21.7679 50.8642C21.89 50.949 22.016 51.0268 22.1474 51.0975C22.2788 51.1675 22.4134 51.2297 22.5518 51.2834C22.691 51.3371 22.8326 51.3829 22.9764 51.4203C23.1203 51.4568 23.2665 51.4856 23.4135 51.505C23.5613 51.5245 23.7098 51.5346 23.8583 51.5369C24.0069 51.5385 24.1554 51.5315 24.3032 51.5152C24.4509 51.4996 24.5979 51.4747 24.7426 51.4413C24.888 51.4071 25.0303 51.3651 25.1703 51.3145C25.3103 51.264 25.4464 51.2049 25.5794 51.138C25.7116 51.0711 25.8399 50.9964 25.9643 50.914C26.088 50.8316 26.2062 50.7421 26.3197 50.6457C26.4325 50.5485 26.5398 50.4458 26.6401 50.3362C26.7412 50.2265 26.8345 50.1114 26.9216 49.9909C27.0088 49.8703 27.0881 49.7451 27.1596 49.6145C27.2312 49.4846 27.2949 49.3508 27.3509 49.2124C27.4061 49.0748 27.4536 48.934 27.4925 48.7909H31.7877C31.8981 48.7909 32.0093 48.7855 32.1197 48.7746C32.2302 48.7637 32.3398 48.7474 32.4487 48.7256C32.5576 48.7038 32.6657 48.6774 32.7722 48.6447C32.878 48.6128 32.983 48.5755 33.0848 48.5327C33.1875 48.4907 33.2878 48.4433 33.3858 48.3912C33.4838 48.3383 33.5795 48.2815 33.6712 48.2201C33.7638 48.1586 33.8532 48.0925 33.9387 48.0218C34.0251 47.9518 34.1067 47.8771 34.1853 47.7986C34.2638 47.72 34.3385 47.6384 34.4092 47.552C34.4792 47.4665 34.5453 47.3778 34.6076 47.2853C34.669 47.1927 34.7258 47.0979 34.7787 46.9999C34.8308 46.9027 34.8782 46.8023 34.921 46.6997C34.963 46.597 35.0003 46.4928 35.033 46.3871C35.0648 46.2805 35.0921 46.1732 35.1138 46.0643C35.1356 45.9554 35.1512 45.8458 35.1621 45.7354C35.1729 45.6249 35.1784 45.5145 35.1784 45.4033V29.7608H38.4976C38.5528 30.0136 38.6282 30.2593 38.7254 30.4989C38.8219 30.7384 38.9385 30.9678 39.0738 31.1879C39.2099 31.4072 39.3631 31.6141 39.5342 31.8077C39.7053 32.0014 39.892 32.1794 40.0934 32.342C40.2948 32.5037 40.5079 32.6476 40.7342 32.7736C40.9597 32.8996 41.1946 33.0053 41.4388 33.0909C41.6822 33.1772 41.9318 33.2418 42.1869 33.2853C42.442 33.3289 42.6986 33.3506 42.9568 33.3506C43.2158 33.3506 43.4724 33.3289 43.7275 33.2853C43.9826 33.2418 44.2315 33.1772 44.4757 33.0909C44.7199 33.0053 44.9547 32.8996 45.1803 32.7736C45.4058 32.6476 45.6196 32.5037 45.8211 32.342C46.0225 32.1794 46.2084 32.0014 46.3795 31.8077C46.5505 31.6141 46.7045 31.4072 46.8398 31.1879C46.9759 30.9678 47.0926 30.7384 47.189 30.4989C47.2862 30.2593 47.3617 30.0136 47.4169 29.7608H50.7353V45.4033C50.7353 45.5145 50.7407 45.6249 50.7516 45.7354C50.7625 45.8458 50.7788 45.9554 50.8006 46.0643C50.8224 46.1732 50.8496 46.2805 50.8815 46.3871C50.9142 46.4928 50.9515 46.597 50.9935 46.6997C51.0363 46.8023 51.0837 46.9027 51.1358 46.9999C51.1887 47.0979 51.2455 47.1927 51.3069 47.2853C51.3691 47.3778 51.4352 47.4665 51.5052 47.552C51.576 47.6384 51.6506 47.72 51.7292 47.7986C51.8077 47.8771 51.8894 47.9518 51.9757 48.0218C52.0613 48.0925 52.1507 48.1586 52.2425 48.2201C52.335 48.2815 52.4307 48.3383 52.5286 48.3912C52.6259 48.4433 52.7262 48.4907 52.8288 48.5327C52.9315 48.5755 53.0365 48.6128 53.1422 48.6447C53.2488 48.6774 53.3561 48.7038 53.465 48.7256C53.5746 48.7474 53.6843 48.7637 53.7947 48.7746C53.9052 48.7855 54.0156 48.7909 54.1268 48.7909H58.422C58.4609 48.934 58.5075 49.0748 58.5635 49.2124C58.6195 49.3508 58.6833 49.4846 58.7548 49.6145C58.8264 49.7451 58.9057 49.8703 58.9928 49.9909C59.0799 50.1114 59.1732 50.2265 59.2743 50.3362C59.3747 50.4458 59.482 50.5485 59.5947 50.6457C59.7083 50.7421 59.8265 50.8316 59.9501 50.914C60.0738 50.9964 60.2021 51.0711 60.3351 51.138C60.4681 51.2049 60.6042 51.264 60.7442 51.3145C60.8841 51.3651 61.0265 51.4071 61.1719 51.4413C61.3165 51.4747 61.4627 51.4996 61.6113 51.5152C61.759 51.5315 61.9076 51.5385 62.0561 51.5369C62.2047 51.5346 62.3532 51.5245 62.501 51.505C62.6479 51.4856 62.7942 51.4568 62.938 51.4203C63.0819 51.3829 63.2234 51.3371 63.3619 51.2834C63.5011 51.2297 63.6356 51.1675 63.767 51.0975C63.8985 51.0268 64.0245 50.949 64.1466 50.8642C64.2687 50.7787 64.3845 50.6861 64.4957 50.5874C64.6062 50.4878 64.7104 50.3821 64.8084 50.2708C64.9064 50.1589 64.9974 50.0414 65.0813 49.9186C65.1653 49.7957 65.2423 49.6689 65.3108 49.5367C65.3792 49.4053 65.4399 49.2692 65.492 49.1308C65.5448 48.9915 65.5884 48.8492 65.6242 48.7054C65.6592 48.5607 65.6856 48.4145 65.7035 48.2675C65.7214 48.1198 65.7299 47.9712 65.7299 47.8227C65.7299 47.6741 65.7214 47.5264 65.7035 47.3786C65.6856 47.2309 65.6592 47.0854 65.6242 46.9408C65.5884 46.7961 65.5448 46.6546 65.492 46.5154C65.4399 46.3762 65.3792 46.2409 65.3108 46.1086C65.2423 45.9772 65.1653 45.8497 65.0813 45.7268C64.9974 45.6047 64.9064 45.4873 64.8084 45.3753C64.7104 45.2633 64.6062 45.1583 64.4957 45.0588C64.3845 44.9592 64.2687 44.8675 64.1466 44.7819C64.0245 44.6964 63.8985 44.6186 63.767 44.5486C63.6356 44.4786 63.5011 44.4164 63.3619 44.3627C63.2234 44.3083 63.0819 44.2632 62.938 44.2259C62.7942 44.1893 62.6479 44.1605 62.5002 44.1411C62.3532 44.1217 62.2047 44.1108 62.0561 44.1092C61.9076 44.1077 61.759 44.1147 61.6113 44.1302C61.4627 44.1465 61.3165 44.1714 61.1719 44.2049C61.0265 44.2383 60.8841 44.2803 60.7442 44.3316C60.6042 44.3822 60.4681 44.4405 60.3351 44.5082C60.2021 44.575 60.0738 44.6497 59.9501 44.7321C59.8265 44.8146 59.7083 44.904 59.5947 45.0004C59.482 45.0969 59.3747 45.2003 59.2743 45.31C59.1732 45.4188 59.0799 45.5339 58.9928 45.6545C58.9057 45.7758 58.8264 45.901 58.7548 46.0309C58.6833 46.1615 58.6195 46.2953 58.5635 46.4329C58.5075 46.5706 58.4609 46.7114 58.422 46.8552H54.1268C54.0311 46.8552 53.937 46.8459 53.8437 46.8272C53.7496 46.8086 53.6586 46.7814 53.5708 46.7448C53.4829 46.7082 53.3989 46.6631 53.3196 46.6103C53.2402 46.5574 53.1664 46.4975 53.0995 46.4298C53.0318 46.3622 52.9712 46.2891 52.9183 46.2097C52.8654 46.1304 52.8203 46.0472 52.7845 45.9586C52.748 45.8707 52.72 45.7805 52.7013 45.6864C52.6826 45.593 52.6733 45.4989 52.6733 45.4033V29.7608H58.422C58.4609 29.9047 58.5075 30.0447 58.5635 30.1831C58.6195 30.3208 58.6833 30.4545 58.7548 30.5852C58.8264 30.715 58.9057 30.8403 58.9928 30.9616C59.0799 31.0821 59.1732 31.1972 59.2743 31.3061C59.3747 31.4157 59.482 31.5192 59.5947 31.6156C59.7083 31.712 59.8265 31.8015 59.9501 31.8839C60.0738 31.9664 60.2021 32.041 60.3351 32.1079C60.4681 32.1748 60.6042 32.2339 60.7442 32.2844C60.8841 32.335 61.0265 32.3778 61.1719 32.4112C61.3165 32.4446 61.4627 32.4695 61.6113 32.4851C61.759 32.5014 61.9076 32.5084 62.0561 32.5068C62.2047 32.5053 62.3532 32.4944 62.501 32.475C62.6479 32.4555 62.7942 32.4267 62.938 32.3902C63.0819 32.3529 63.2234 32.3078 63.3619 32.2533C63.5011 32.1997 63.6356 32.1374 63.767 32.0675C63.8985 31.9975 64.0245 31.9197 64.1466 31.8341C64.2687 31.7486 64.3845 31.6568 64.4957 31.5573C64.6062 31.4577 64.7104 31.3528 64.8084 31.2408C64.9064 31.1288 64.9974 31.0113 65.0813 30.8885C65.1653 30.7664 65.2423 30.6388 65.3108 30.5066C65.3792 30.3752 65.4399 30.2399 65.492 30.1007C65.5448 29.9615 65.5884 29.8199 65.6242 29.6753C65.6592 29.5306 65.6856 29.3852 65.7035 29.2374C65.7214 29.0897 65.7299 28.9419 65.7299 28.7934C65.7299 28.6441 65.7214 28.4963 65.7035 28.3485C65.6856 28.2008 65.6592 28.0553 65.6242 27.9107C65.5884 27.766 65.5448 27.6245 65.492 27.4853C65.4399 27.3461 65.3792 27.2108 65.3108 27.0793C65.2423 26.9471 65.1653 26.8196 65.0813 26.6975C64.9974 26.5746 64.9064 26.4572 64.8084 26.3452C64.7104 26.234 64.6062 26.1282 64.4957 26.0287C64.3845 25.9299 64.2687 25.8374 64.1466 25.7518C64.0245 25.6663 63.8985 25.5885 63.767 25.5185C63.6356 25.4485 63.5011 25.3863 63.3619 25.3327C63.2234 25.2782 63.0819 25.2331 62.938 25.1958C62.7942 25.1592 62.6479 25.1305 62.5002 25.111C62.3532 25.0916 62.2047 25.0807 62.0561 25.0791C61.9076 25.0776 61.759 25.0846 61.6113 25.1009C61.4627 25.1165 61.3165 25.1413 61.1719 25.1748C61.0265 25.209 60.8841 25.251 60.7442 25.3015C60.6042 25.3521 60.4681 25.4112 60.3351 25.4781C60.2021 25.545 60.0738 25.6196 59.9501 25.7021C59.8265 25.7845 59.7083 25.8739 59.5947 25.9704C59.482 26.0676 59.3747 26.1702 59.2743 26.2799C59.1732 26.3888 59.0799 26.5039 58.9928 26.6252C58.9057 26.7457 58.8264 26.8709 58.7548 27.0008C58.6833 27.1315 58.6195 27.2652 58.5635 27.4029C58.5075 27.5413 58.4609 27.6821 58.422 27.8252H52.6733V12.1827C52.6733 12.087 52.6826 11.9929 52.7013 11.8996C52.72 11.8063 52.748 11.7153 52.7845 11.6274C52.8203 11.5388 52.8654 11.4556 52.9183 11.3762C52.9712 11.2969 53.0318 11.2238 53.0995 11.1561C53.1664 11.0885 53.2402 11.0286 53.3196 10.9757C53.3989 10.9228 53.4829 10.8777 53.5708 10.8412C53.6586 10.8046 53.7496 10.7774 53.8437 10.7587C53.937 10.7401 54.0311 10.7307 54.1268 10.7307H58.422C58.4609 10.8746 58.5075 11.0154 58.5635 11.153C58.6195 11.2907 58.6833 11.4244 58.7548 11.5551C58.8264 11.685 58.9057 11.811 58.9928 11.9315C59.0799 12.052 59.1732 12.1671 59.2743 12.2768C59.3747 12.3857 59.482 12.4891 59.5947 12.5855C59.7083 12.682 59.8265 12.7714 59.9501 12.8538C60.0738 12.9363 60.2021 13.0109 60.3351 13.0778C60.4681 13.1455 60.6042 13.2038 60.7442 13.2544C60.8841 13.3057 61.0265 13.3477 61.1719 13.3811C61.3165 13.4146 61.4627 13.4394 61.6113 13.4558C61.759 13.4713 61.9076 13.4783 62.0561 13.4768C62.2047 13.4752 62.3532 13.4643 62.5002 13.4449C62.6479 13.4254 62.7942 13.3974 62.938 13.3601C63.0819 13.3228 63.2234 13.2777 63.3619 13.2232C63.5011 13.1696 63.6356 13.1074 63.767 13.0374C63.8985 12.9674 64.0245 12.8896 64.1466 12.8041C64.2687 12.7185 64.3845 12.6268 64.4957 12.5272C64.6062 12.4277 64.7104 12.3227 64.8084 12.2107C64.9064 12.0987 64.9974 11.9813 65.0813 11.8592C65.1653 11.7363 65.2423 11.6088 65.3108 11.4773C65.3792 11.3451 65.4399 11.2098 65.492 11.0706C65.5448 10.9314 65.5884 10.7899 65.6242 10.6452C65.6592 10.5013 65.6856 10.3551 65.7035 10.2074C65.7214 10.0596 65.7299 9.91184 65.7299 9.7633C65.7299 9.61476 65.7214 9.46622 65.7035 9.31846C65.6856 9.17148 65.6592 9.02527 65.6242 8.88062C65.5884 8.73675 65.5448 8.59443 65.492 8.456C65.4399 8.3168 65.3792 8.1807 65.3108 8.04927C65.2423 7.91706 65.1653 7.7903 65.0813 7.66743C64.9974 7.54455 64.9064 7.42712 64.8084 7.31591C64.7104 7.20392 64.6062 7.09816 64.4957 6.99861C64.3845 6.89985 64.2687 6.8073 64.1466 6.72176C64.0245 6.63699 63.8985 6.55922 63.767 6.48845C63.6356 6.41846 63.5011 6.35624 63.3619 6.30258C63.2234 6.24892 63.0819 6.20304 62.938 6.16648C62.7942 6.12916 62.6479 6.10116 62.5002 6.08094C62.3532 6.0615 62.2047 6.05139 62.0561 6.04905C61.9076 6.0475 61.759 6.0545 61.6113 6.07083C61.4627 6.08638 61.3165 6.11127 61.1719 6.14549C61.0265 6.17893 60.8841 6.22092 60.7442 6.27147C60.6042 6.32202 60.4681 6.38113 60.3351 6.44801C60.2021 6.51489 60.0738 6.58955 59.9501 6.67198C59.8265 6.75442 59.7083 6.84385 59.5947 6.94106C59.482 7.0375 59.3747 7.14015 59.2743 7.24981C59.1732 7.35946 59.0799 7.47456 58.9928 7.5951C58.9057 7.71564 58.8264 7.84085 58.7548 7.9715C58.6833 8.10138 58.6195 8.23514 58.5635 8.37357C58.5075 8.51122 58.4609 8.65198 58.422 8.79508H54.1268C54.0156 8.79508 53.9052 8.80052 53.7947 8.81141C53.6843 8.8223 53.5746 8.83863 53.465 8.8604C53.3561 8.88218 53.2488 8.90862 53.1422 8.94128C53.0365 8.97317 52.9315 9.0105 52.8288 9.05327C52.7262 9.09527 52.6259 9.1427 52.5286 9.19559C52.4307 9.24769 52.335 9.30446 52.2425 9.3659C52.1507 9.42812 52.0613 9.49344 51.9757 9.56421C51.8894 9.6342 51.8077 9.70886 51.7292 9.78741C51.6506 9.86596 51.576 9.94761 51.5052 10.0339C51.4352 10.1195 51.3691 10.2081 51.3069 10.3007C51.2455 10.3932 51.1887 10.4881 51.1358 10.5861C51.0837 10.6841 51.0363 10.7836 50.9935 10.8863C50.9515 10.9889 50.9142 11.0932 50.8815 11.1997C50.8496 11.3055 50.8224 11.4128 50.8006 11.5217C50.7788 11.6305 50.7625 11.7402 50.7516 11.8506C50.7407 11.9611 50.7353 12.0715 50.7353 12.1827V27.8252H47.4169C47.3617 27.5724 47.2862 27.3267 47.189 27.0871C47.0926 26.8476 46.9759 26.6182 46.8398 26.3981C46.7045 26.1788 46.5505 25.9719 46.3795 25.7783C46.2084 25.5846 46.0225 25.4065 45.8211 25.244C45.6196 25.0822 45.4058 24.9384 45.1803 24.8124C44.9547 24.6864 44.7199 24.5806 44.4757 24.4951C44.2315 24.4088 43.9826 24.3442 43.7275 24.3007C43.4724 24.2571 43.2158 24.2353 42.9568 24.2353C42.6986 24.2353 42.442 24.2571 42.1869 24.3007C41.9318 24.3442 41.6822 24.4088 41.4388 24.4951C41.1946 24.5806 40.9597 24.6864 40.7342 24.8124C40.5079 24.9384 40.2948 25.0822 40.0934 25.244C39.892 25.4065 39.7053 25.5846 39.5342 25.7783C39.3631 25.9719 39.2099 26.1788 39.0738 26.3981C38.9385 26.6182 38.8219 26.8476 38.7254 27.0871C38.6282 27.3267 38.5528 27.5724 38.4976 27.8252H35.1784V12.1827ZM23.905 11.5442C23.7876 11.5442 23.6717 11.5325 23.5566 11.51C23.4423 11.4874 23.3303 11.454 23.2222 11.4089C23.1141 11.3646 23.0114 11.3101 22.9134 11.2448C22.8162 11.1803 22.726 11.1064 22.6428 11.0239C22.5604 10.9415 22.4865 10.8513 22.4212 10.7541C22.3558 10.6569 22.3006 10.5542 22.2563 10.4461C22.2112 10.338 22.177 10.2268 22.1544 10.1125C22.1311 9.99739 22.1194 9.88151 22.1194 9.76486C22.1194 9.64743 22.1311 9.53155 22.1536 9.41723C22.1762 9.30213 22.2096 9.19092 22.2547 9.08282C22.2991 8.97472 22.3543 8.87207 22.4196 8.77486C22.4842 8.67765 22.558 8.58743 22.6405 8.505C22.7237 8.42179 22.8139 8.34791 22.9111 8.28336C23.0083 8.21803 23.111 8.16281 23.2191 8.11849C23.3272 8.07338 23.4392 8.03994 23.5535 8.01661C23.6686 7.99406 23.7844 7.98239 23.9019 7.98239C24.0185 7.98239 24.1344 7.99328 24.2495 8.01661C24.3646 8.03916 24.4758 8.0726 24.5839 8.11771C24.692 8.16204 24.7954 8.21725 24.8927 8.2818C24.9899 8.34713 25.0801 8.42101 25.1625 8.50344C25.2457 8.58666 25.3196 8.67609 25.3849 8.7733C25.4495 8.87051 25.5047 8.97317 25.5498 9.08127C25.5941 9.18937 25.6284 9.30058 25.6509 9.41567C25.6742 9.52999 25.6851 9.64587 25.6851 9.7633C25.6851 9.87995 25.6742 9.99583 25.6509 10.1102C25.6284 10.2245 25.5949 10.3365 25.5498 10.4438C25.5055 10.5519 25.4503 10.6545 25.3857 10.7517C25.3204 10.849 25.2465 10.9392 25.1641 11.0216C25.0816 11.104 24.9914 11.1779 24.8942 11.2432C24.797 11.3078 24.6943 11.363 24.5862 11.4073C24.4781 11.4524 24.3669 11.4867 24.2526 11.5092C24.1375 11.5325 24.0216 11.5434 23.905 11.5442ZM23.905 30.5712C23.7876 30.5712 23.6725 30.5603 23.5574 30.537C23.443 30.5144 23.3318 30.481 23.2237 30.4359C23.1156 30.3915 23.013 30.3363 22.9158 30.2718C22.8186 30.2064 22.7283 30.1333 22.6459 30.0509C22.5635 29.9677 22.4896 29.8783 22.4243 29.781C22.3597 29.6838 22.3045 29.5812 22.2602 29.4739C22.2151 29.3658 22.1816 29.2545 22.1583 29.1402C22.1357 29.0251 22.1241 28.91 22.1241 28.7934C22.1241 28.6759 22.1357 28.5608 22.1583 28.4457C22.1816 28.3314 22.2151 28.2202 22.2602 28.1121C22.3045 28.0048 22.3597 27.9021 22.4243 27.8049C22.4896 27.7077 22.5635 27.6183 22.6459 27.5359C22.7283 27.4526 22.8186 27.3795 22.9158 27.3142C23.013 27.2497 23.1156 27.1944 23.2237 27.1501C23.3318 27.105 23.443 27.0716 23.5574 27.049C23.6725 27.0257 23.7876 27.0148 23.905 27.0148C24.0216 27.0148 24.1375 27.0257 24.2518 27.049C24.3669 27.0716 24.4781 27.105 24.5862 27.1501C24.6943 27.1944 24.797 27.2497 24.8942 27.3142C24.9914 27.3795 25.0809 27.4526 25.1641 27.5359C25.2465 27.6183 25.3204 27.7077 25.3849 27.8049C25.4503 27.9021 25.5047 28.0048 25.5498 28.1121C25.5941 28.2202 25.6284 28.3314 25.6509 28.4457C25.6742 28.5608 25.6851 28.6759 25.6851 28.7934C25.6851 28.91 25.6735 29.0251 25.6509 29.1394C25.6276 29.2545 25.5941 29.3658 25.549 29.4731C25.5047 29.5812 25.4495 29.6831 25.3842 29.7803C25.3196 29.8775 25.2457 29.9669 25.1633 30.0501C25.0801 30.1326 24.9906 30.2064 24.8934 30.271C24.7962 30.3355 24.6936 30.3908 24.5855 30.4351C24.4781 30.4802 24.3669 30.5136 24.2518 30.537C24.1375 30.5595 24.0216 30.5712 23.905 30.5712ZM23.905 49.6013C23.7876 49.6013 23.6725 49.5896 23.5574 49.567C23.443 49.5445 23.3318 49.5103 23.2237 49.4659C23.1156 49.4216 23.013 49.3664 22.9158 49.3018C22.8186 49.2365 22.7283 49.1626 22.6459 49.0802C22.5635 48.9978 22.4896 48.9083 22.4243 48.8111C22.3597 48.7139 22.3045 48.6113 22.2602 48.5032C22.2151 48.3958 22.1816 48.2846 22.1583 48.1695C22.1357 48.0552 22.1241 47.9393 22.1241 47.8227C22.1241 47.706 22.1357 47.5901 22.1583 47.4758C22.1816 47.3615 22.2151 47.2503 22.2602 47.1422C22.3045 47.0349 22.3597 46.9322 22.4243 46.835C22.4896 46.7378 22.5635 46.6484 22.6459 46.5652C22.7283 46.4827 22.8186 46.4088 22.9158 46.3443C23.013 46.2797 23.1156 46.2245 23.2237 46.1802C23.3318 46.1351 23.443 46.1016 23.5574 46.0791C23.6725 46.0558 23.7876 46.0449 23.905 46.0449C24.0216 46.0449 24.1375 46.0558 24.2518 46.0791C24.3669 46.1016 24.4781 46.1351 24.5862 46.1802C24.6943 46.2245 24.797 46.2797 24.8942 46.3443C24.9914 46.4088 25.0809 46.4827 25.1641 46.5652C25.2465 46.6484 25.3204 46.7378 25.3849 46.835C25.4503 46.9322 25.5047 47.0349 25.5498 47.1422C25.5941 47.2503 25.6284 47.3615 25.6509 47.4758C25.6742 47.5901 25.6851 47.706 25.6851 47.8227C25.6851 47.9393 25.6735 48.0552 25.6509 48.1695C25.6276 48.2838 25.5941 48.3951 25.549 48.5032C25.5047 48.6113 25.4495 48.7131 25.3842 48.8103C25.3196 48.9076 25.2457 48.997 25.1633 49.0794C25.0801 49.1626 24.9906 49.2357 24.8934 49.3011C24.7962 49.3656 24.6936 49.4208 24.5855 49.4652C24.4781 49.5103 24.3669 49.5437 24.2518 49.567C24.1375 49.5896 24.0216 49.6013 23.905 49.6013ZM62.0095 46.0449C62.1261 46.0449 62.242 46.0558 62.3571 46.0791C62.4714 46.1016 62.5826 46.1351 62.6907 46.1802C62.7988 46.2245 62.9015 46.2797 62.9987 46.3443C63.0959 46.4088 63.1861 46.4827 63.2685 46.5652C63.351 46.6484 63.4249 46.7378 63.4902 46.835C63.5547 46.9322 63.61 47.0349 63.6543 47.1422C63.6994 47.2503 63.7328 47.3615 63.7562 47.4758C63.7787 47.5901 63.7904 47.706 63.7904 47.8227C63.7904 47.9393 63.7787 48.0552 63.7562 48.1695C63.7328 48.2846 63.6994 48.3958 63.6543 48.5032C63.61 48.6113 63.5547 48.7139 63.4902 48.8111C63.4249 48.9083 63.351 48.9978 63.2685 49.0802C63.1861 49.1634 63.0959 49.2365 62.9987 49.3018C62.9015 49.3664 62.7988 49.4216 62.6907 49.4659C62.5826 49.5103 62.4714 49.5445 62.3571 49.567C62.242 49.5896 62.1261 49.6013 62.0095 49.6013C61.8928 49.6013 61.7769 49.5896 61.6618 49.567C61.5475 49.5445 61.4363 49.5103 61.3282 49.4659C61.2201 49.4216 61.1175 49.3664 61.0202 49.3018C60.923 49.2365 60.8328 49.1634 60.7504 49.0802C60.668 48.9978 60.5941 48.9083 60.5287 48.8111C60.4642 48.7139 60.409 48.6113 60.3647 48.5032C60.3195 48.3958 60.2861 48.2846 60.2636 48.1695C60.2402 48.0552 60.2293 47.9393 60.2293 47.8227C60.2293 47.706 60.241 47.5909 60.2636 47.4758C60.2869 47.3615 60.3203 47.2503 60.3654 47.143C60.4098 47.0349 60.465 46.9322 60.5295 46.8358C60.5948 46.7386 60.6687 46.6484 60.7512 46.5659C60.8336 46.4835 60.9238 46.4096 61.021 46.3451C61.1182 46.2805 61.2209 46.2253 61.3282 46.1802C61.4363 46.1359 61.5475 46.1016 61.6626 46.0791C61.7769 46.0565 61.8928 46.0449 62.0095 46.0449ZM62.0095 27.0148C62.1261 27.0148 62.242 27.0257 62.3571 27.049C62.4714 27.0716 62.5826 27.105 62.6907 27.1501C62.7988 27.1944 62.9015 27.2497 62.9987 27.3142C63.0959 27.3795 63.1861 27.4526 63.2685 27.5359C63.351 27.6183 63.4249 27.7077 63.4902 27.8049C63.5547 27.9021 63.61 28.0048 63.6543 28.1121C63.6994 28.2202 63.7328 28.3314 63.7562 28.4457C63.7787 28.5608 63.7904 28.6759 63.7904 28.7934C63.7904 28.91 63.7787 29.0251 63.7562 29.1402C63.7328 29.2545 63.6994 29.3658 63.6543 29.4739C63.61 29.5812 63.5547 29.6838 63.4902 29.781C63.4249 29.8783 63.351 29.9677 63.2685 30.0509C63.1861 30.1333 63.0959 30.2064 62.9987 30.2718C62.9015 30.3363 62.7988 30.3915 62.6907 30.4359C62.5826 30.481 62.4714 30.5144 62.3571 30.537C62.242 30.5603 62.1261 30.5712 62.0095 30.5712C61.8928 30.5712 61.7769 30.5603 61.6618 30.537C61.5475 30.5144 61.4363 30.481 61.3282 30.4359C61.2201 30.3915 61.1175 30.3363 61.0202 30.2718C60.923 30.2064 60.8328 30.1333 60.7504 30.0509C60.668 29.9677 60.5941 29.8783 60.5287 29.781C60.4642 29.6838 60.409 29.5812 60.3647 29.4739C60.3195 29.3658 60.2861 29.2545 60.2636 29.1402C60.2402 29.0251 60.2293 28.91 60.2293 28.7934C60.2293 28.6759 60.241 28.5608 60.2636 28.4465C60.2869 28.3314 60.3203 28.221 60.3654 28.1129C60.4098 28.0048 60.465 27.9029 60.5295 27.8057C60.5948 27.7085 60.6687 27.6191 60.7512 27.5359C60.8336 27.4534 60.9238 27.3803 61.021 27.315C61.1182 27.2504 61.2209 27.1952 61.3282 27.1509C61.4363 27.1058 61.5475 27.0723 61.6626 27.049C61.7769 27.0265 61.8928 27.0148 62.0095 27.0148ZM62.0095 7.98472C62.1269 7.98472 62.2428 7.99561 62.3579 8.01816C62.4722 8.0415 62.5842 8.07494 62.6923 8.11926C62.8004 8.16437 62.9038 8.21881 63.001 8.28413C63.0982 8.34868 63.1884 8.42256 63.2717 8.505C63.3541 8.58743 63.4287 8.67765 63.4933 8.77486C63.5586 8.87207 63.6138 8.97472 63.6589 9.08282C63.7033 9.19092 63.7375 9.30213 63.76 9.41723C63.7834 9.53155 63.795 9.64743 63.795 9.76486C63.795 9.88151 63.7834 9.99739 63.7608 10.1125C63.7375 10.2268 63.7041 10.3388 63.6589 10.4469C63.6146 10.555 63.5594 10.6576 63.4949 10.7549C63.4295 10.8521 63.3556 10.9423 63.2724 11.0247C63.19 11.1071 63.0998 11.181 63.0026 11.2464C62.9046 11.3117 62.8019 11.3661 62.6938 11.4112C62.5857 11.4556 62.4737 11.4898 62.3594 11.5123C62.2443 11.5349 62.1285 11.5465 62.011 11.5465C61.8944 11.5465 61.7777 11.5349 61.6634 11.5115C61.5483 11.489 61.4371 11.4548 61.3282 11.4104C61.2201 11.3653 61.1175 11.3101 61.0202 11.2456C60.923 11.1803 60.8328 11.1064 60.7504 11.0239C60.6672 10.9407 60.5933 10.8505 60.5287 10.7533C60.4634 10.6561 60.409 10.5534 60.3639 10.4453C60.3195 10.3372 60.2853 10.2252 60.2628 10.1109C60.2402 9.99583 60.2286 9.87995 60.2293 9.7633C60.2293 9.64665 60.241 9.53077 60.2636 9.41645C60.2869 9.30213 60.3203 9.19092 60.3654 9.08282C60.4098 8.97472 60.465 8.87285 60.5295 8.77563C60.5948 8.67842 60.6687 8.58899 60.7512 8.50655C60.8336 8.42412 60.9238 8.35024 61.021 8.28491C61.1182 8.22036 61.2209 8.16515 61.3282 8.12082C61.4363 8.07571 61.5475 8.04227 61.6626 8.01894C61.7769 7.99639 61.8928 7.98472 62.0095 7.98472ZM42.9568 26.1702C43.1295 26.1702 43.3006 26.1873 43.4701 26.2208C43.6397 26.2542 43.8037 26.304 43.9632 26.3701C44.1226 26.4362 44.2742 26.5171 44.4173 26.6127C44.5612 26.7084 44.6942 26.8173 44.8163 26.9394C44.9376 27.0615 45.0473 27.1937 45.1429 27.3375C45.2386 27.4806 45.3195 27.6323 45.3856 27.7917C45.4517 27.9504 45.5014 28.1152 45.5349 28.284C45.5691 28.4527 45.5854 28.6238 45.5854 28.7965C45.5854 28.9684 45.5683 29.1394 45.5349 29.3082C45.5014 29.4777 45.4509 29.6418 45.3848 29.8013C45.3187 29.9599 45.2378 30.1116 45.1421 30.2547C45.0457 30.3985 44.9368 30.5307 44.8147 30.6528C44.6926 30.7742 44.5597 30.883 44.4166 30.9787C44.2727 31.0743 44.121 31.1552 43.9616 31.2213C43.8022 31.2874 43.6381 31.3372 43.4686 31.3706C43.299 31.4041 43.1279 31.4204 42.9553 31.4204C42.7826 31.4204 42.6123 31.4033 42.4428 31.3699C42.2732 31.3364 42.1092 31.2859 41.9497 31.2198C41.7903 31.1544 41.6387 31.0728 41.4956 30.9771C41.3517 30.8815 41.2195 30.7726 41.0974 30.6505C40.9753 30.5284 40.8664 30.3954 40.7708 30.2523C40.6751 30.1085 40.5942 29.9576 40.5281 29.7982C40.462 29.6387 40.4122 29.4746 40.3788 29.3051C40.3454 29.1363 40.329 28.9652 40.329 28.7934C40.329 28.6207 40.3461 28.4504 40.3804 28.2817C40.4138 28.1121 40.4643 27.9488 40.5304 27.7894C40.5965 27.6307 40.6774 27.4791 40.7731 27.336C40.8695 27.1929 40.9784 27.0607 41.1005 26.9386C41.2226 26.8173 41.3548 26.7084 41.4979 26.6127C41.6418 26.5171 41.7926 26.4362 41.9521 26.3701C42.1115 26.3048 42.2756 26.255 42.4451 26.2208C42.6139 26.1873 42.785 26.1702 42.9568 26.1702Z" fill="white"/>
</g>
<path d="M93.616 25H89.296L74.512 3.656H78.832L93.616 25ZM83.824 12.136L89.424 3.656H93.456L85.84 14.888L83.824 12.136ZM84.72 15.592L78.512 25H74.48L82.48 13.288L84.72 15.592ZM101.038 25V6.632H94.1258V3.656H111.47V6.632H104.558V25H101.038ZM111.807 25V10.408C112.084 10.2373 112.596 10.0027 113.343 9.704C114.089 9.40533 114.975 9.14933 115.999 8.936C117.023 8.70133 118.057 8.584 119.103 8.584C119.636 8.584 120.073 8.62667 120.415 8.712C120.756 8.79733 121.044 8.89333 121.279 9V11.688C120.788 11.624 120.276 11.5813 119.743 11.56C119.209 11.5173 118.676 11.5173 118.143 11.56C117.609 11.5813 117.087 11.624 116.575 11.688C116.063 11.752 115.593 11.816 115.167 11.88V25H111.807ZM129.772 25.48C128.94 25.48 128.14 25.3947 127.372 25.224C126.604 25.0747 125.9 24.808 125.26 24.424C124.641 24.04 124.14 23.5173 123.756 22.856C123.393 22.1733 123.212 21.3307 123.212 20.328C123.212 19.1333 123.447 18.152 123.916 17.384C124.385 16.616 125.057 16.04 125.932 15.656C126.807 15.272 127.852 15.08 129.068 15.08C129.879 15.08 130.604 15.144 131.244 15.272C131.905 15.4 132.492 15.5813 133.004 15.816C133.537 16.0293 133.985 16.2747 134.348 16.552L134.7 18.76C134.231 18.44 133.601 18.1733 132.812 17.96C132.023 17.7253 131.169 17.608 130.252 17.608C129.036 17.608 128.108 17.8213 127.468 18.248C126.849 18.6747 126.54 19.3147 126.54 20.168C126.54 20.808 126.721 21.3307 127.084 21.736C127.447 22.12 127.895 22.408 128.428 22.6C128.983 22.7707 129.559 22.856 130.156 22.856C131.415 22.856 132.343 22.7707 132.94 22.6C133.537 22.4293 133.836 22.0347 133.836 21.416V14.696C133.836 13.5653 133.495 12.744 132.812 12.232C132.129 11.6987 131.159 11.432 129.9 11.432C129.004 11.432 128.076 11.5813 127.116 11.88C126.156 12.1573 125.367 12.552 124.748 13.064V9.928C125.345 9.52267 126.209 9.20267 127.34 8.968C128.492 8.712 129.676 8.584 130.892 8.584C131.489 8.584 132.087 8.648 132.684 8.776C133.303 8.88267 133.879 9.064 134.412 9.32C134.945 9.55467 135.415 9.88533 135.82 10.312C136.247 10.7173 136.577 11.2187 136.812 11.816C137.047 12.4133 137.164 13.1173 137.164 13.928V21.608C137.164 22.6533 136.833 23.464 136.172 24.04C135.532 24.5947 134.657 24.968 133.548 25.16C132.439 25.3733 131.18 25.48 129.772 25.48ZM148.318 25.32C147.336 25.32 146.376 25.1813 145.438 24.904C144.499 24.6267 143.646 24.1787 142.878 23.56C142.131 22.92 141.534 22.0773 141.086 21.032C140.638 19.9653 140.414 18.6427 140.414 17.064C140.414 15.4427 140.627 14.088 141.054 13C141.48 11.912 142.067 11.048 142.814 10.408C143.56 9.74667 144.403 9.27733 145.342 9C146.302 8.72267 147.283 8.584 148.286 8.584C149.139 8.584 149.992 8.66933 150.846 8.84C151.699 8.98933 152.488 9.224 153.214 9.544V12.552C152.488 12.232 151.763 11.9867 151.038 11.816C150.312 11.624 149.555 11.528 148.766 11.528C147.102 11.528 145.843 11.944 144.99 12.776C144.158 13.608 143.742 14.952 143.742 16.808C143.742 18.728 144.136 20.136 144.926 21.032C145.736 21.9067 147.048 22.344 148.862 22.344C149.651 22.344 150.419 22.248 151.166 22.056C151.912 21.8427 152.606 21.5867 153.246 21.288V24.296C152.499 24.6373 151.72 24.8933 150.91 25.064C150.099 25.2347 149.235 25.32 148.318 25.32ZM163.393 25.48C161.814 25.48 160.438 25.16 159.265 24.52C158.113 23.88 157.217 22.9307 156.577 21.672C155.958 20.4133 155.649 18.8773 155.649 17.064C155.649 14.2693 156.299 12.1573 157.601 10.728C158.923 9.27733 160.758 8.552 163.105 8.552C164.833 8.552 166.23 8.936 167.297 9.704C168.363 10.472 169.131 11.5493 169.601 12.936C170.091 14.3013 170.326 15.9013 170.305 17.736H157.665L157.569 15.24H167.745L166.945 16.04C166.881 14.3973 166.539 13.2027 165.921 12.456C165.302 11.688 164.331 11.304 163.009 11.304C162.155 11.304 161.43 11.4853 160.833 11.848C160.235 12.1893 159.777 12.7867 159.457 13.64C159.158 14.472 159.009 15.624 159.009 17.096C159.009 18.888 159.425 20.2533 160.257 21.192C161.089 22.1093 162.315 22.568 163.937 22.568C164.662 22.568 165.334 22.504 165.953 22.376C166.593 22.248 167.179 22.088 167.713 21.896C168.246 21.6827 168.705 21.48 169.089 21.288V24.392C168.342 24.712 167.499 24.968 166.561 25.16C165.622 25.3733 164.566 25.48 163.393 25.48Z" fill="white"/>
<path d="M76.528 50V28.656H80.208L87.856 39.952L85.776 40.208L93.808 28.656H97.424V50H93.904V31.664L94.896 32.336L86.768 43.568L79.024 32.432L79.952 31.408V50H76.528ZM106.978 50.48C105.399 50.48 104.023 50.16 102.85 49.52C101.698 48.88 100.802 47.9307 100.162 46.672C99.5428 45.4133 99.2335 43.8773 99.2335 42.064C99.2335 39.2693 99.8842 37.1573 101.186 35.728C102.508 34.2773 104.343 33.552 106.69 33.552C108.418 33.552 109.815 33.936 110.882 34.704C111.948 35.472 112.716 36.5493 113.186 37.936C113.676 39.3013 113.911 40.9013 113.89 42.736H101.25L101.154 40.24H111.33L110.53 41.04C110.466 39.3973 110.124 38.2027 109.506 37.456C108.887 36.688 107.916 36.304 106.594 36.304C105.74 36.304 105.015 36.4853 104.418 36.848C103.82 37.1893 103.362 37.7867 103.042 38.64C102.743 39.472 102.594 40.624 102.594 42.096C102.594 43.888 103.01 45.2533 103.842 46.192C104.674 47.1093 105.9 47.568 107.522 47.568C108.247 47.568 108.919 47.504 109.538 47.376C110.178 47.248 110.764 47.088 111.298 46.896C111.831 46.6827 112.29 46.48 112.674 46.288V49.392C111.927 49.712 111.084 49.968 110.146 50.16C109.207 50.3733 108.151 50.48 106.978 50.48ZM129.433 39.376V50H126.073V39.824C126.073 39.4187 126.02 39.024 125.913 38.64C125.828 38.2347 125.646 37.872 125.369 37.552C125.113 37.2107 124.729 36.944 124.217 36.752C123.726 36.56 123.076 36.464 122.265 36.464C121.689 36.464 121.113 36.5173 120.537 36.624C119.961 36.7307 119.406 36.88 118.873 37.072V50H115.513V35.248C115.982 35.0133 116.505 34.8 117.081 34.608C117.678 34.3947 118.308 34.2133 118.969 34.064C119.63 33.9147 120.302 33.7973 120.985 33.712C121.668 33.6267 122.329 33.584 122.969 33.584C124.484 33.584 125.71 33.7973 126.649 34.224C127.588 34.6293 128.281 35.2693 128.729 36.144C129.198 36.9973 129.433 38.0747 129.433 39.376ZM125.593 36.08C126.276 35.5253 127.022 35.0667 127.833 34.704C128.665 34.3413 129.518 34.064 130.393 33.872C131.289 33.68 132.164 33.584 133.017 33.584C134.532 33.584 135.758 33.7973 136.697 34.224C137.636 34.6293 138.329 35.2693 138.777 36.144C139.246 36.9973 139.481 38.0747 139.481 39.376V50H136.121V39.824C136.121 39.4187 136.068 39.024 135.961 38.64C135.876 38.2347 135.694 37.872 135.417 37.552C135.161 37.2107 134.777 36.944 134.265 36.752C133.774 36.56 133.124 36.464 132.313 36.464C131.737 36.464 131.161 36.5493 130.585 36.72C130.009 36.8907 129.454 37.1573 128.921 37.52L125.593 36.08ZM148.872 50.48C146.269 50.48 144.328 49.744 143.048 48.272C141.789 46.8 141.16 44.6987 141.16 41.968C141.16 39.0667 141.81 36.944 143.112 35.6C144.434 34.2347 146.333 33.552 148.808 33.552C150.578 33.552 152.04 33.8827 153.192 34.544C154.344 35.184 155.197 36.1333 155.752 37.392C156.306 38.6507 156.584 40.176 156.584 41.968C156.584 44.6773 155.912 46.7787 154.568 48.272C153.245 49.744 151.346 50.48 148.872 50.48ZM148.84 47.632C149.928 47.632 150.792 47.3973 151.432 46.928C152.072 46.4373 152.53 45.7653 152.808 44.912C153.106 44.0587 153.256 43.0773 153.256 41.968C153.256 40.7307 153.106 39.696 152.808 38.864C152.509 38.032 152.04 37.4133 151.4 37.008C150.76 36.5813 149.906 36.368 148.84 36.368C147.773 36.368 146.92 36.592 146.28 37.04C145.64 37.488 145.181 38.128 144.904 38.96C144.626 39.792 144.488 40.7947 144.488 41.968C144.488 43.7387 144.818 45.1253 145.48 46.128C146.141 47.1307 147.261 47.632 148.84 47.632ZM158.252 50V35.408C158.529 35.2373 159.041 35.0027 159.788 34.704C160.534 34.4053 161.42 34.1493 162.444 33.936C163.468 33.7013 164.502 33.584 165.548 33.584C166.081 33.584 166.518 33.6267 166.86 33.712C167.201 33.7973 167.489 33.8933 167.724 34V36.688C167.233 36.624 166.721 36.5813 166.188 36.56C165.654 36.5173 165.121 36.5173 164.588 36.56C164.054 36.5813 163.532 36.624 163.02 36.688C162.508 36.752 162.038 36.816 161.612 36.88V50H158.252ZM171.289 56.208C170.884 56.208 170.5 56.1653 170.137 56.08C169.774 56.016 169.454 55.9307 169.177 55.824V52.944C169.433 53.0293 169.689 53.104 169.945 53.168C170.201 53.232 170.478 53.264 170.777 53.264C171.417 53.264 171.95 53.0933 172.377 52.752C172.804 52.4107 173.166 51.92 173.465 51.28C173.764 50.64 174.009 49.872 174.201 48.976L174.265 50.64L167.417 33.936H171.225L175.865 46.608H175.385L179.961 33.936H183.449L176.825 50.992C176.292 52.3573 175.716 53.4133 175.097 54.16C174.478 54.928 173.838 55.4613 173.177 55.76C172.537 56.0587 171.908 56.208 171.289 56.208Z" fill="white"/>
</svg>
